<?xml version="1.0" encoding="UTF-8" standalone="no"?>
<!-- Created with Inkscape (http://www.inkscape.org/) -->

<svg
   xmlns:dc="http://purl.org/dc/elements/1.1/"
   xmlns:cc="http://creativecommons.org/ns#"
   xmlns:rdf="http://www.w3.org/1999/02/22-rdf-syntax-ns#"
   xmlns:svg="http://www.w3.org/2000/svg"
   xmlns="http://www.w3.org/2000/svg"
   xmlns:sodipodi="http://sodipodi.sourceforge.net/DTD/sodipodi-0.dtd"
   xmlns:inkscape="http://www.inkscape.org/namespaces/inkscape"
   width="313.95663"
   height="368.0907"
   id="svg5239"
   version="1.1"
   inkscape:version="0.48.1 r9760"
   sodipodi:docname="foster.svg">
  <defs
     id="defs5241">
    <marker
       inkscape:stockid="Arrow2Lend"
       orient="auto"
       refY="0"
       refX="0"
       id="Arrow2Lend"
       style="overflow:visible">
      <path
         id="path4744"
         style="font-size:12px;fill-rule:evenodd;stroke-width:0.625;stroke-linejoin:round"
         d="M 8.7185878,4.0337352 -2.2072895,0.01601326 8.7185884,-4.0017078 c -1.7454984,2.3720609 -1.7354408,5.6174519 -6e-7,8.035443 z"
         transform="matrix(-1.1,0,0,-1.1,-1.1,0)"
         inkscape:connector-curvature="0" />
    </marker>
  </defs>
  <sodipodi:namedview
     id="base"
     pagecolor="#ffffff"
     bordercolor="#666666"
     borderopacity="1.0"
     inkscape:pageopacity="0.0"
     inkscape:pageshadow="2"
     inkscape:zoom="0.98994949"
     inkscape:cx="158.93013"
     inkscape:cy="277.94811"
     inkscape:document-units="px"
     inkscape:current-layer="layer1"
     showgrid="false"
     inkscape:window-width="799"
     inkscape:window-height="627"
     inkscape:window-x="809"
     inkscape:window-y="108"
     inkscape:window-maximized="0"
     fit-margin-top="0"
     fit-margin-left="0"
     fit-margin-right="0"
     fit-margin-bottom="0" />
  <metadata
     id="metadata5244">
    <rdf:RDF>
      <cc:Work
         rdf:about="">
        <dc:format>image/svg+xml</dc:format>
        <dc:type
           rdf:resource="http://purl.org/dc/dcmitype/StillImage" />
        <dc:title></dc:title>
      </cc:Work>
    </rdf:RDF>
  </metadata>
  <g
     inkscape:label="Camada 1"
     inkscape:groupmode="layer"
     id="layer1"
     transform="translate(-180.92858,-124.77151)">
    <rect
       style="fill:#ffffff;fill-opacity:1;stroke:#000000;stroke-width:0.43848747;stroke-miterlimit:4;stroke-opacity:1;stroke-dasharray:none;stroke-dashoffset:0"
       id="rect6257"
       width="55.795574"
       height="57.386364"
       x="204.21413"
       y="363.67151" />
    <rect
       style="fill:#ffffff;fill-opacity:1;stroke:#000000;stroke-width:0.43848747;stroke-miterlimit:4;stroke-opacity:1;stroke-dasharray:none;stroke-dashoffset:0"
       id="rect6257-8"
       width="55.795574"
       height="57.386364"
       x="269.91333"
       y="371.78445" />
    <rect
       style="fill:#ffffff;fill-opacity:1;stroke:#000000;stroke-width:0.43848747;stroke-miterlimit:4;stroke-opacity:1;stroke-dasharray:none;stroke-dashoffset:0"
       id="rect6257-0"
       width="55.795574"
       height="57.386364"
       x="252.73293"
       y="435.25659" />
    <rect
       style="fill:#ffffff;fill-opacity:1;stroke:#000000;stroke-width:0.43848747;stroke-miterlimit:4;stroke-opacity:1;stroke-dasharray:none;stroke-dashoffset:0"
       id="rect6257-6"
       width="55.795574"
       height="57.386364"
       x="181.14783"
       y="427.30267" />
    <path
       sodipodi:type="arc"
       style="fill:#ffffff;fill-opacity:1;stroke:#000000;stroke-width:1;stroke-miterlimit:4;stroke-opacity:1;stroke-dasharray:none;stroke-dashoffset:0"
       id="path6041"
       sodipodi:cx="428.30469"
       sodipodi:cy="615.97626"
       sodipodi:rx="68.690376"
       sodipodi:ry="70.710678"
       d="m 496.99506,615.97626 c 0,39.05243 -30.75373,70.71068 -68.69037,70.71068 -37.93665,0 -68.69038,-31.65825 -68.69038,-70.71068 0,-39.05243 30.75373,-70.71068 68.69038,-70.71068 37.93664,0 68.69037,31.65825 68.69037,70.71068 z"
       transform="matrix(0.42320154,0,0,0.42320154,223.70855,39.43858)" />
    <path
       sodipodi:type="arc"
       style="fill:#ffffff;fill-opacity:1;stroke:#000000;stroke-width:1;stroke-miterlimit:4;stroke-opacity:1;stroke-dasharray:none;stroke-dashoffset:0"
       id="path6041-2-9"
       sodipodi:cx="428.30469"
       sodipodi:cy="615.97626"
       sodipodi:rx="68.690376"
       sodipodi:ry="70.710678"
       d="m 496.99506,615.97626 c 0,39.05243 -30.75373,70.71068 -68.69037,70.71068 -37.93665,0 -68.69038,-31.65825 -68.69038,-70.71068 0,-39.05243 30.75373,-70.71068 68.69038,-70.71068 37.93664,0 68.69037,31.65825 68.69037,70.71068 z"
       transform="matrix(0.38606155,0,0,0.4052599,211.4009,105.20998)" />
    <path
       sodipodi:type="arc"
       style="fill:#ffffff;fill-opacity:1;stroke:#000000;stroke-width:1;stroke-miterlimit:4;stroke-opacity:1;stroke-dasharray:none;stroke-dashoffset:0"
       id="path6041-2"
       sodipodi:cx="428.30469"
       sodipodi:cy="615.97626"
       sodipodi:rx="68.690376"
       sodipodi:ry="70.710678"
       d="m 496.99506,615.97626 c 0,39.05243 -30.75373,70.71068 -68.69037,70.71068 -37.93665,0 -68.69038,-31.65825 -68.69038,-70.71068 0,-39.05243 30.75373,-70.71068 68.69038,-70.71068 37.93664,0 68.69037,31.65825 68.69037,70.71068 z"
       transform="matrix(0.42059204,0,0,0.42755529,269.1072,105.46477)" />
    <path
       transform="matrix(0.42320154,0,0,0.42320154,284.34453,47.13356)"
       sodipodi:type="arc"
       style="fill:#ffffff;fill-opacity:1;stroke:#000000;stroke-width:1;stroke-miterlimit:4;stroke-opacity:1;stroke-dasharray:none;stroke-dashoffset:0"
       id="path6041-4"
       sodipodi:cx="428.30469"
       sodipodi:cy="615.97626"
       sodipodi:rx="68.690376"
       sodipodi:ry="70.710678"
       d="m 496.99506,615.97626 c 0,39.05243 -30.75373,70.71068 -68.69037,70.71068 -37.93665,0 -68.69038,-31.65825 -68.69038,-70.71068 0,-39.05243 30.75373,-70.71068 68.69038,-70.71068 37.93664,0 68.69037,31.65825 68.69037,70.71068 z" />
    <path
       style="fill:none;stroke:#000000;stroke-width:0.44735175;stroke-linecap:butt;stroke-linejoin:miter;stroke-miterlimit:4;stroke-opacity:1;stroke-dasharray:none;stroke-dashoffset:0"
       d="m 225.23961,148.16102 c 0,-4.9119 -1.4021,-3.35837 1.48716,-5.49258 0.49572,-0.36617 1.17364,-0.63533 1.48716,-1.09851 0.44338,-0.65502 -0.44339,-1.54199 0,-2.19702 0.31352,-0.46318 1.17363,-0.63535 1.48716,-1.09852 0.22169,-0.32751 -0.2217,-0.77099 0,-1.09851 0.31351,-0.46318 1.09827,-0.66764 1.48715,-1.09852 1.22972,-1.36253 1.74458,-3.03151 2.97432,-4.39405 0.85551,-0.94791 3.29986,-2.43751 4.46147,-3.29554 0.49571,-0.36617 0.99143,-0.73234 1.48715,-1.09852 0.49572,-0.36617 0.86012,-0.86692 1.48715,-1.09851 0.88677,-0.32751 2.08755,0.32752 2.97432,0 0.62704,-0.23159 0.86011,-0.86693 1.48715,-1.09851 0.39104,-0.14442 5.17097,0 5.94863,0 1.44085,0 8.03619,-0.21834 8.92294,0 1.05158,0.25892 2.05202,0.64433 2.97431,1.09851 1.28327,0.63194 3.29988,2.43751 4.46147,3.29554 0.49573,0.36617 0.86012,0.86693 1.48716,1.09852 0.44338,0.16375 1.04377,-0.16376 1.48716,0 0.39485,0.14583 4.26404,3.00387 4.46147,3.29554 0.22169,0.32751 -0.2217,0.771 0,1.09851 0.89229,1.31822 3.56918,1.97732 4.46147,3.29554 0.59486,0.87881 -0.59486,2.41673 0,3.29554 0.31352,0.46318 1.17363,0.63535 1.48716,1.09851 0.44438,0.65651 -0.97899,2.19703 1.48715,2.19703 3.30479,0 3.13956,-1.83085 4.46147,-3.29554 0.77775,-0.86174 2.34727,-1.27068 2.97432,-2.19702 0.22168,-0.32752 -0.2217,-0.771 0,-1.09852 0.14232,-0.21027 5.66395,-4.28891 5.94862,-4.39405 0.87745,-0.32407 3.43856,0.25186 4.46147,0 5.12654,-1.26227 1.10162,-1.09852 4.46147,-1.09852 0.49572,0 1.01688,-0.11579 1.48715,0 1.05158,0.25892 2.05202,0.64434 2.97431,1.09852 1.16663,0.57449 1.98288,1.46468 2.97432,2.19702 2.47859,1.83086 4.95719,3.66172 7.43578,5.49257 0.49572,0.36617 1.48716,0.58067 1.48716,1.09851 0,0.51785 -0.99144,0.73235 -1.48716,1.09852 -0.54613,0.40341 -5.94862,4.30565 -5.94862,4.39406 0,0.51784 0.99143,0.73234 1.48715,1.09851 0.49572,0.36617 0.99145,0.73234 1.48716,1.09851 0.49572,0.36617 0.86012,0.86693 1.48716,1.09852 0.44338,0.16375 1.04377,-0.16376 1.48715,0 1.25408,0.46317 1.80769,1.62253 2.97432,2.19702 0.92229,0.45418 2.05202,0.64434 2.97431,1.09852 1.28327,0.63193 3.29987,2.43751 4.46147,3.29554 0.49572,0.36617 0.99144,0.73234 1.48716,1.09851 0.49571,0.36617 1.17363,0.63534 1.48715,1.09852 0.22629,0.33431 0,2.80081 0,3.29554 0,1.31339 0.32354,5.87412 0,6.59108 -0.35053,0.77677 -0.87229,1.51576 -1.48715,2.19702 -0.41231,0.45684 -5.41674,4.19761 -5.94863,4.39406 -0.3845,0.14201 -7.86884,0 -8.92294,0 -0.77766,0 -5.55759,-0.14442 -5.94863,0 -0.62704,0.23159 -0.99143,0.73234 -1.48716,1.09852 -1.70153,1.25686 -2.07397,1.30038 -2.97431,3.29553 -0.15676,0.34739 0.2217,0.771 0,1.09852 -0.14233,0.21028 -5.66395,4.28891 -5.94862,4.39406 -0.5378,0.19863 -6.40141,0 -7.43579,0 -1.62383,0 -6.47402,0.2368 -7.43577,0 -3.12304,-0.76897 -5.79992,-2.52659 -8.92294,-3.29555 -0.47029,-0.11579 -1.04378,0.16376 -1.48716,0 -1.25409,-0.46317 -1.80769,-1.62253 -2.97432,-2.19703 -0.92229,-0.45418 -2.05201,-0.64433 -2.97431,-1.09851 -0.58331,-0.28725 -0.86012,-0.86692 -1.48716,-1.09851 -0.44338,-0.16376 -1.04377,0.16375 -1.48715,0 -4.93228,-3.64331 1.4021,0.51785 -2.97432,-1.09851 -1.25407,-0.46318 -1.72023,-1.73386 -2.97431,-2.19703 -1.37468,-0.50772 -3.77385,0.97153 -4.46147,1.09851 -2.33279,0.43079 -5.10298,-0.43079 -7.43578,0 -1.07537,0.19859 -1.92273,0.83959 -2.97432,1.09852 -0.0833,0.0205 -7.1496,0.10569 -7.43577,0 -0.79427,-0.29335 -3.67854,-2.71722 -4.46147,-3.29554 -0.49572,-0.36617 -0.99145,-0.73235 -1.48716,-1.09852 -0.49573,-0.36617 -1.17364,-0.63534 -1.48716,-1.09852 -0.44338,-0.65502 0.44338,-1.54199 0,-2.19702 -1.83768,-2.71487 -1.48715,0.37918 -1.48715,-2.19703 0,-0.36617 0,-1.46468 0,-1.09851 0,5.41933 0,-0.58588 0,-2.19703 0,-0.49472 0.22629,-2.96122 0,-3.29554 -0.31353,-0.46317 -1.17364,-0.63534 -1.48716,-1.09851 -0.44339,-0.65503 0.31352,-1.50227 0,-2.19703 -0.35053,-0.77677 -1.13663,-1.42026 -1.48716,-2.19703 -0.15676,-0.34738 0.22169,-0.771 0,-1.09851 -0.31352,-0.46317 -1.3719,-0.58772 -1.48716,-1.09852 -0.40747,-1.80594 0,-3.66171 0,-5.49256 z"
       id="path5277"
       inkscape:connector-curvature="0" />
    <path
       sodipodi:type="arc"
       style="fill:#ffffff;fill-opacity:1;stroke:#000000;stroke-width:1;stroke-miterlimit:4;stroke-opacity:1;stroke-dasharray:none;stroke-dashoffset:0"
       id="path5279"
       sodipodi:cx="344.28571"
       sodipodi:cy="313.79074"
       sodipodi:rx="21.428572"
       sodipodi:ry="21.428572"
       d="m 365.71428,313.79074 c 0,11.83467 -9.5939,21.42857 -21.42857,21.42857 -11.83468,0 -21.42858,-9.5939 -21.42858,-21.42857 0,-11.83467 9.5939,-21.42857 21.42858,-21.42857 11.83467,0 21.42857,9.5939 21.42857,21.42857 z"
       transform="matrix(0.42320154,0,0,0.42320154,249.80895,38.58358)" />
    <path
       sodipodi:type="arc"
       style="fill:#ffffff;fill-opacity:1;stroke:#000000;stroke-width:1;stroke-miterlimit:4;stroke-opacity:1;stroke-dasharray:none;stroke-dashoffset:0"
       id="path5279-7"
       sodipodi:cx="344.28571"
       sodipodi:cy="313.79074"
       sodipodi:rx="21.428572"
       sodipodi:ry="21.428572"
       d="m 365.71428,313.79074 c 0,11.83467 -9.5939,21.42857 -21.42857,21.42857 -11.83468,0 -21.42858,-9.5939 -21.42858,-21.42857 0,-11.83467 9.5939,-21.42857 21.42858,-21.42857 11.83467,0 21.42857,9.5939 21.42857,21.42857 z"
       transform="matrix(0.42320154,0,0,0.42320154,275.80561,35.56072)" />
    <path
       sodipodi:type="arc"
       style="fill:#ffffff;fill-opacity:1;stroke:#000000;stroke-width:1;stroke-miterlimit:4;stroke-opacity:1;stroke-dasharray:none;stroke-dashoffset:0"
       id="path5279-9"
       sodipodi:cx="344.28571"
       sodipodi:cy="313.79074"
       sodipodi:rx="21.428572"
       sodipodi:ry="21.428572"
       d="m 365.71428,313.79074 c 0,11.83467 -9.5939,21.42857 -21.42857,21.42857 -11.83468,0 -21.42858,-9.5939 -21.42858,-21.42857 0,-11.83467 9.5939,-21.42857 21.42858,-21.42857 11.83467,0 21.42857,9.5939 21.42857,21.42857 z"
       transform="matrix(0.42320154,0,0,0.42320154,303.61601,44.02475)" />
    <path
       sodipodi:type="arc"
       style="fill:#ffffff;fill-opacity:1;stroke:#000000;stroke-width:1;stroke-miterlimit:4;stroke-opacity:1;stroke-dasharray:none;stroke-dashoffset:0"
       id="path5279-0"
       sodipodi:cx="344.28571"
       sodipodi:cy="313.79074"
       sodipodi:rx="21.428572"
       sodipodi:ry="21.428572"
       d="m 365.71428,313.79074 c 0,11.83467 -9.5939,21.42857 -21.42857,21.42857 -11.83468,0 -21.42858,-9.5939 -21.42858,-21.42857 0,-11.83467 9.5939,-21.42857 21.42858,-21.42857 11.83467,0 21.42857,9.5939 21.42857,21.42857 z"
       transform="matrix(0.42320154,0,0,0.42320154,267.34158,60.95281)" />
    <path
       sodipodi:type="arc"
       style="fill:#ffffff;fill-opacity:1;stroke:#000000;stroke-width:1;stroke-miterlimit:4;stroke-opacity:1;stroke-dasharray:none;stroke-dashoffset:0"
       id="path5279-2"
       sodipodi:cx="344.28571"
       sodipodi:cy="313.79074"
       sodipodi:rx="21.428572"
       sodipodi:ry="21.428572"
       d="m 365.71428,313.79074 c 0,11.83467 -9.5939,21.42857 -21.42857,21.42857 -11.83468,0 -21.42858,-9.5939 -21.42858,-21.42857 0,-11.83467 9.5939,-21.42857 21.42858,-21.42857 11.83467,0 21.42857,9.5939 21.42857,21.42857 z"
       transform="matrix(0.42320154,0,0,0.42320154,298.77941,70.62599)" />
    <path
       sodipodi:type="arc"
       style="fill:#ffffff;fill-opacity:1;stroke:#000000;stroke-width:1;stroke-miterlimit:4;stroke-opacity:1;stroke-dasharray:none;stroke-dashoffset:0"
       id="path5279-5"
       sodipodi:cx="344.28571"
       sodipodi:cy="313.79074"
       sodipodi:rx="21.428572"
       sodipodi:ry="21.428572"
       d="m 365.71428,313.79074 c 0,11.83467 -9.5939,21.42857 -21.42857,21.42857 -11.83468,0 -21.42858,-9.5939 -21.42858,-21.42857 0,-11.83467 9.5939,-21.42857 21.42858,-21.42857 11.83467,0 21.42857,9.5939 21.42857,21.42857 z"
       transform="matrix(0.42320154,0,0,0.42320154,243.15864,86.34491)" />
    <path
       sodipodi:type="arc"
       style="fill:#ffffff;fill-opacity:1;stroke:#000000;stroke-width:1;stroke-miterlimit:4;stroke-opacity:1;stroke-dasharray:none;stroke-dashoffset:0"
       id="path5279-1"
       sodipodi:cx="344.28571"
       sodipodi:cy="313.79074"
       sodipodi:rx="21.428572"
       sodipodi:ry="21.428572"
       d="m 365.71428,313.79074 c 0,11.83467 -9.5939,21.42857 -21.42857,21.42857 -11.83468,0 -21.42858,-9.5939 -21.42858,-21.42857 0,-11.83467 9.5939,-21.42857 21.42858,-21.42857 11.83467,0 21.42857,9.5939 21.42857,21.42857 z"
       transform="matrix(0.42320154,0,0,0.42320154,278.22391,88.7632)" />
    <path
       sodipodi:type="arc"
       style="fill:#ffffff;fill-opacity:1;stroke:#000000;stroke-width:1;stroke-miterlimit:4;stroke-opacity:1;stroke-dasharray:none;stroke-dashoffset:0"
       id="path5279-8"
       sodipodi:cx="344.28571"
       sodipodi:cy="313.79074"
       sodipodi:rx="21.428572"
       sodipodi:ry="21.428572"
       d="m 365.71428,313.79074 c 0,11.83467 -9.5939,21.42857 -21.42857,21.42857 -11.83468,0 -21.42858,-9.5939 -21.42858,-21.42857 0,-11.83467 9.5939,-21.42857 21.42858,-21.42857 11.83467,0 21.42857,9.5939 21.42857,21.42857 z"
       transform="matrix(0.42320154,0,0,0.42320154,301.19771,106.90041)" />
    <path
       sodipodi:type="arc"
       style="fill:#ffffff;fill-opacity:1;stroke:#000000;stroke-width:1;stroke-miterlimit:4;stroke-opacity:1;stroke-dasharray:none;stroke-dashoffset:0"
       id="path5279-83"
       sodipodi:cx="344.28571"
       sodipodi:cy="313.79074"
       sodipodi:rx="21.428572"
       sodipodi:ry="21.428572"
       d="m 365.71428,313.79074 c 0,11.83467 -9.5939,21.42857 -21.42857,21.42857 -11.83468,0 -21.42858,-9.5939 -21.42858,-21.42857 0,-11.83467 9.5939,-21.42857 21.42858,-21.42857 11.83467,0 21.42857,9.5939 21.42857,21.42857 z"
       transform="matrix(0.42320154,0,0,0.42320154,106.20723,82.27312)" />
    <path
       sodipodi:type="arc"
       style="fill:#ffffff;fill-opacity:1;stroke:#000000;stroke-width:1;stroke-miterlimit:4;stroke-opacity:1;stroke-dasharray:none;stroke-dashoffset:0"
       id="path5279-7-0"
       sodipodi:cx="344.28571"
       sodipodi:cy="313.79074"
       sodipodi:rx="21.428572"
       sodipodi:ry="21.428572"
       d="m 365.71428,313.79074 c 0,11.83467 -9.5939,21.42857 -21.42857,21.42857 -11.83468,0 -21.42858,-9.5939 -21.42858,-21.42857 0,-11.83467 9.5939,-21.42857 21.42858,-21.42857 11.83467,0 21.42857,9.5939 21.42857,21.42857 z"
       transform="matrix(0.42320154,0,0,0.42320154,132.20389,79.25026)" />
    <path
       sodipodi:type="arc"
       style="fill:#ffffff;fill-opacity:1;stroke:#000000;stroke-width:1;stroke-miterlimit:4;stroke-opacity:1;stroke-dasharray:none;stroke-dashoffset:0"
       id="path5279-9-8"
       sodipodi:cx="344.28571"
       sodipodi:cy="313.79074"
       sodipodi:rx="21.428572"
       sodipodi:ry="21.428572"
       d="m 365.71428,313.79074 c 0,11.83467 -9.5939,21.42857 -21.42857,21.42857 -11.83468,0 -21.42858,-9.5939 -21.42858,-21.42857 0,-11.83467 9.5939,-21.42857 21.42858,-21.42857 11.83467,0 21.42857,9.5939 21.42857,21.42857 z"
       transform="matrix(0.42320154,0,0,0.42320154,160.01429,87.71429)" />
    <path
       sodipodi:type="arc"
       style="fill:#ffffff;fill-opacity:1;stroke:#000000;stroke-width:1;stroke-miterlimit:4;stroke-opacity:1;stroke-dasharray:none;stroke-dashoffset:0"
       id="path5279-0-9"
       sodipodi:cx="344.28571"
       sodipodi:cy="313.79074"
       sodipodi:rx="21.428572"
       sodipodi:ry="21.428572"
       d="m 365.71428,313.79074 c 0,11.83467 -9.5939,21.42857 -21.42857,21.42857 -11.83468,0 -21.42858,-9.5939 -21.42858,-21.42857 0,-11.83467 9.5939,-21.42857 21.42858,-21.42857 11.83467,0 21.42857,9.5939 21.42857,21.42857 z"
       transform="matrix(0.42320154,0,0,0.42320154,123.73986,104.64235)" />
    <path
       sodipodi:type="arc"
       style="fill:#ffffff;fill-opacity:1;stroke:#000000;stroke-width:1;stroke-miterlimit:4;stroke-opacity:1;stroke-dasharray:none;stroke-dashoffset:0"
       id="path5279-2-3"
       sodipodi:cx="344.28571"
       sodipodi:cy="313.79074"
       sodipodi:rx="21.428572"
       sodipodi:ry="21.428572"
       d="m 365.71428,313.79074 c 0,11.83467 -9.5939,21.42857 -21.42857,21.42857 -11.83468,0 -21.42858,-9.5939 -21.42858,-21.42857 0,-11.83467 9.5939,-21.42857 21.42858,-21.42857 11.83467,0 21.42857,9.5939 21.42857,21.42857 z"
       transform="matrix(0.42320154,0,0,0.42320154,155.17769,114.31553)" />
    <path
       sodipodi:type="arc"
       style="fill:#ffffff;fill-opacity:1;stroke:#000000;stroke-width:1;stroke-miterlimit:4;stroke-opacity:1;stroke-dasharray:none;stroke-dashoffset:0"
       id="path5279-5-2"
       sodipodi:cx="344.28571"
       sodipodi:cy="313.79074"
       sodipodi:rx="21.428572"
       sodipodi:ry="21.428572"
       d="m 365.71428,313.79074 c 0,11.83467 -9.5939,21.42857 -21.42857,21.42857 -11.83468,0 -21.42858,-9.5939 -21.42858,-21.42857 0,-11.83467 9.5939,-21.42857 21.42858,-21.42857 11.83467,0 21.42857,9.5939 21.42857,21.42857 z"
       transform="matrix(0.42320154,0,0,0.42320154,99.55692,130.03445)" />
    <path
       sodipodi:type="arc"
       style="fill:#ffffff;fill-opacity:1;stroke:#000000;stroke-width:1;stroke-miterlimit:4;stroke-opacity:1;stroke-dasharray:none;stroke-dashoffset:0"
       id="path5279-1-0"
       sodipodi:cx="344.28571"
       sodipodi:cy="313.79074"
       sodipodi:rx="21.428572"
       sodipodi:ry="21.428572"
       d="m 365.71428,313.79074 c 0,11.83467 -9.5939,21.42857 -21.42857,21.42857 -11.83468,0 -21.42858,-9.5939 -21.42858,-21.42857 0,-11.83467 9.5939,-21.42857 21.42858,-21.42857 11.83467,0 21.42857,9.5939 21.42857,21.42857 z"
       transform="matrix(0.42320154,0,0,0.42320154,134.62219,132.45274)" />
    <path
       sodipodi:type="arc"
       style="fill:#ffffff;fill-opacity:1;stroke:#000000;stroke-width:1;stroke-miterlimit:4;stroke-opacity:1;stroke-dasharray:none;stroke-dashoffset:0"
       id="path5279-8-6"
       sodipodi:cx="344.28571"
       sodipodi:cy="313.79074"
       sodipodi:rx="21.428572"
       sodipodi:ry="21.428572"
       d="m 365.71428,313.79074 c 0,11.83467 -9.5939,21.42857 -21.42857,21.42857 -11.83468,0 -21.42858,-9.5939 -21.42858,-21.42857 0,-11.83467 9.5939,-21.42857 21.42858,-21.42857 11.83467,0 21.42857,9.5939 21.42857,21.42857 z"
       transform="matrix(0.42320154,0,0,0.42320154,157.59599,150.58995)" />
    <path
       style="fill:none;stroke:#000000;stroke-width:0.42320156px;stroke-linecap:butt;stroke-linejoin:miter;stroke-opacity:1"
       d="m 268.89737,213.09451 -7.97914,0.92781"
       id="path5888"
       inkscape:connector-type="polyline"
       inkscape:connector-curvature="0"
       inkscape:connection-start="#path5279-7-0"
       inkscape:connection-start-point="d4"
       inkscape:connection-end="#path5279-83"
       inkscape:connection-end-point="d4" />
    <path
       style="fill:none;stroke:#000000;stroke-width:0.42320156px;stroke-linecap:butt;stroke-linejoin:miter;stroke-opacity:1"
       d="m 304.09401,229.43488 -1.59155,8.75351"
       id="path5892"
       inkscape:connector-type="polyline"
       inkscape:connector-curvature="0"
       inkscape:connection-start="#path5279-9-8"
       inkscape:connection-start-point="d4"
       inkscape:connection-end="#path5279-2-3"
       inkscape:connection-end-point="d4" />
    <path
       style="fill:none;stroke:#000000;stroke-width:0.42320156px;stroke-linecap:butt;stroke-linejoin:miter;stroke-opacity:1"
       d="m 263.18788,244.00601 -11.6745,12.25823"
       id="path5902"
       inkscape:connector-type="polyline"
       inkscape:connector-curvature="0"
       inkscape:connection-start="#path5279-0-9"
       inkscape:connection-start-point="d4"
       inkscape:connection-end="#path5279-5-2"
       inkscape:connection-end-point="d4" />
    <path
       style="fill:none;stroke:#000000;stroke-width:0.42320156px;stroke-linecap:butt;stroke-linejoin:miter;stroke-opacity:1"
       d="m 294.07987,253.11231 -6.95538,6.1371"
       id="path5906"
       inkscape:connector-type="polyline"
       inkscape:connector-curvature="0"
       inkscape:connection-start="#path5279-2-3"
       inkscape:connection-start-point="d4"
       inkscape:connection-end="#path5279-1-0"
       inkscape:connection-end-point="d4" />
    <path
       style="fill:none;stroke:#000000;stroke-width:0.42320156px;stroke-linecap:butt;stroke-linejoin:miter;stroke-opacity:1"
       d="m 301.48319,256.16111 1.21178,18.17671"
       id="path5908"
       inkscape:connector-type="polyline"
       inkscape:connector-curvature="0"
       inkscape:connection-start="#path5279-2-3"
       inkscape:connection-start-point="d4"
       inkscape:connection-end="#path5279-8-6"
       inkscape:connection-end-point="d4" />
    <path
       style="fill:none;stroke:#000000;stroke-width:0.42320156px;stroke-linecap:butt;stroke-linejoin:miter;stroke-opacity:1"
       d="m 272.31062,228.83351 2.72699,-8.18096"
       id="path5910"
       inkscape:connector-type="polyline"
       inkscape:connector-curvature="0"
       inkscape:connection-start="#path5279-0-9"
       inkscape:connection-start-point="d4"
       inkscape:connection-end="#path5279-7-0"
       inkscape:connection-end-point="d4" />
    <path
       style="fill:none;stroke:#000000;stroke-width:0.42320156px;stroke-linecap:butt;stroke-linejoin:miter;stroke-opacity:1"
       d="m 286.58412,214.68811 10.45442,3.18178"
       id="path5912"
       inkscape:connector-type="polyline"
       inkscape:connector-curvature="0"
       inkscape:connection-start="#path5279-7-0"
       inkscape:connection-start-point="d4"
       inkscape:connection-end="#path5279-9-8"
       inkscape:connection-end-point="d4" />
    <path
       sodipodi:type="arc"
       style="fill:#ffffff;fill-opacity:1;stroke:#000000;stroke-width:1;stroke-miterlimit:4;stroke-opacity:1;stroke-dasharray:none;stroke-dashoffset:0"
       id="path5279-83-5"
       sodipodi:cx="344.28571"
       sodipodi:cy="313.79074"
       sodipodi:rx="21.428572"
       sodipodi:ry="21.428572"
       d="m 365.71428,313.79074 c 0,11.83467 -9.5939,21.42857 -21.42857,21.42857 -11.83468,0 -21.42858,-9.5939 -21.42858,-21.42857 0,-11.83467 9.5939,-21.42857 21.42858,-21.42857 11.83467,0 21.42857,9.5939 21.42857,21.42857 z"
       transform="matrix(0.42320154,0,0,0.42320154,243.76321,158.89374)" />
    <path
       sodipodi:type="arc"
       style="fill:#ffffff;fill-opacity:1;stroke:#000000;stroke-width:1;stroke-miterlimit:4;stroke-opacity:1;stroke-dasharray:none;stroke-dashoffset:0"
       id="path5279-7-0-5"
       sodipodi:cx="344.28571"
       sodipodi:cy="313.79074"
       sodipodi:rx="21.428572"
       sodipodi:ry="21.428572"
       d="m 365.71428,313.79074 c 0,11.83467 -9.5939,21.42857 -21.42857,21.42857 -11.83468,0 -21.42858,-9.5939 -21.42858,-21.42857 0,-11.83467 9.5939,-21.42857 21.42858,-21.42857 11.83467,0 21.42857,9.5939 21.42857,21.42857 z"
       transform="matrix(0.42320154,0,0,0.42320154,269.75987,155.87087)" />
    <path
       sodipodi:type="arc"
       style="fill:#ffffff;fill-opacity:1;stroke:#000000;stroke-width:1;stroke-miterlimit:4;stroke-opacity:1;stroke-dasharray:none;stroke-dashoffset:0"
       id="path5279-9-8-8"
       sodipodi:cx="344.28571"
       sodipodi:cy="313.79074"
       sodipodi:rx="21.428572"
       sodipodi:ry="21.428572"
       d="m 365.71428,313.79074 c 0,11.83467 -9.5939,21.42857 -21.42857,21.42857 -11.83468,0 -21.42858,-9.5939 -21.42858,-21.42857 0,-11.83467 9.5939,-21.42857 21.42858,-21.42857 11.83467,0 21.42857,9.5939 21.42857,21.42857 z"
       transform="matrix(0.42320154,0,0,0.42320154,320.58642,159.19633)" />
    <path
       sodipodi:type="arc"
       style="fill:#ffffff;fill-opacity:1;stroke:#000000;stroke-width:1;stroke-miterlimit:4;stroke-opacity:1;stroke-dasharray:none;stroke-dashoffset:0"
       id="path5279-0-9-1"
       sodipodi:cx="344.28571"
       sodipodi:cy="313.79074"
       sodipodi:rx="21.428572"
       sodipodi:ry="21.428572"
       d="m 365.71428,313.79074 c 0,11.83467 -9.5939,21.42857 -21.42857,21.42857 -11.83468,0 -21.42858,-9.5939 -21.42858,-21.42857 0,-11.83467 9.5939,-21.42857 21.42858,-21.42857 11.83467,0 21.42857,9.5939 21.42857,21.42857 z"
       transform="matrix(0.42320154,0,0,0.42320154,261.29584,181.26297)" />
    <path
       sodipodi:type="arc"
       style="fill:#ffffff;fill-opacity:1;stroke:#000000;stroke-width:1;stroke-miterlimit:4;stroke-opacity:1;stroke-dasharray:none;stroke-dashoffset:0"
       id="path5279-2-3-9"
       sodipodi:cx="344.28571"
       sodipodi:cy="313.79074"
       sodipodi:rx="21.428572"
       sodipodi:ry="21.428572"
       d="m 365.71428,313.79074 c 0,11.83467 -9.5939,21.42857 -21.42857,21.42857 -11.83468,0 -21.42858,-9.5939 -21.42858,-21.42857 0,-11.83467 9.5939,-21.42857 21.42858,-21.42857 11.83467,0 21.42857,9.5939 21.42857,21.42857 z"
       transform="matrix(0.42320154,0,0,0.42320154,320.85402,191.78254)" />
    <path
       sodipodi:type="arc"
       style="fill:#ffffff;fill-opacity:1;stroke:#000000;stroke-width:1;stroke-miterlimit:4;stroke-opacity:1;stroke-dasharray:none;stroke-dashoffset:0"
       id="path5279-5-2-8"
       sodipodi:cx="344.28571"
       sodipodi:cy="313.79074"
       sodipodi:rx="21.428572"
       sodipodi:ry="21.428572"
       d="m 365.71428,313.79074 c 0,11.83467 -9.5939,21.42857 -21.42857,21.42857 -11.83468,0 -21.42858,-9.5939 -21.42858,-21.42857 0,-11.83467 9.5939,-21.42857 21.42858,-21.42857 11.83467,0 21.42857,9.5939 21.42857,21.42857 z"
       transform="matrix(0.42320154,0,0,0.42320154,232.83792,215.20502)" />
    <path
       sodipodi:type="arc"
       style="fill:#ffffff;fill-opacity:1;stroke:#000000;stroke-width:1;stroke-miterlimit:4;stroke-opacity:1;stroke-dasharray:none;stroke-dashoffset:0"
       id="path5279-1-0-5"
       sodipodi:cx="344.28571"
       sodipodi:cy="313.79074"
       sodipodi:rx="21.428572"
       sodipodi:ry="21.428572"
       d="m 365.71428,313.79074 c 0,11.83467 -9.5939,21.42857 -21.42857,21.42857 -11.83468,0 -21.42858,-9.5939 -21.42858,-21.42857 0,-11.83467 9.5939,-21.42857 21.42858,-21.42857 11.83467,0 21.42857,9.5939 21.42857,21.42857 z"
       transform="matrix(0.42320154,0,0,0.42320154,294.33933,225.30969)" />
    <path
       sodipodi:type="arc"
       style="fill:#ffffff;fill-opacity:1;stroke:#000000;stroke-width:1;stroke-miterlimit:4;stroke-opacity:1;stroke-dasharray:none;stroke-dashoffset:0"
       id="path5279-8-6-9"
       sodipodi:cx="344.28571"
       sodipodi:cy="313.79074"
       sodipodi:rx="21.428572"
       sodipodi:ry="21.428572"
       d="m 365.71428,313.79074 c 0,11.83467 -9.5939,21.42857 -21.42857,21.42857 -11.83468,0 -21.42858,-9.5939 -21.42858,-21.42857 0,-11.83467 9.5939,-21.42857 21.42858,-21.42857 11.83467,0 21.42857,9.5939 21.42857,21.42857 z"
       transform="matrix(0.42320154,0,0,0.42320154,313.89314,245.15689)" />
    <path
       style="fill:none;stroke:#000000;stroke-width:0.42320156px;stroke-linecap:butt;stroke-linejoin:miter;stroke-opacity:1"
       d="m 406.45335,289.71513 -7.97914,0.9278"
       id="path5888-3"
       inkscape:connector-type="polyline"
       inkscape:connector-curvature="0"
       inkscape:connection-start="#path5279-7-0-5"
       inkscape:connection-start-point="d4"
       inkscape:connection-end="#path5279-83-5"
       inkscape:connection-end-point="d4" />
    <path
       style="fill:none;stroke:#000000;stroke-width:0.42320156px;stroke-linecap:butt;stroke-linejoin:miter;stroke-opacity:1"
       d="m 466.36313,301.06136 0.11866,14.4496"
       id="path5892-5"
       inkscape:connector-type="polyline"
       inkscape:connector-curvature="0"
       inkscape:connection-end-point="d4"
       inkscape:connection-end="#path5279-2-3-9"
       inkscape:connection-start-point="d4"
       inkscape:connection-start="#path5279-9-8-8" />
    <path
       style="fill:none;stroke:#000000;stroke-width:0.42320156px;stroke-linecap:butt;stroke-linejoin:miter;stroke-opacity:1"
       d="m 409.8666,305.45413 2.72699,-8.18097"
       id="path5910-1"
       inkscape:connector-type="polyline"
       inkscape:connector-curvature="0"
       inkscape:connection-start="#path5279-0-9-1"
       inkscape:connection-start-point="d4"
       inkscape:connection-end="#path5279-7-0-5"
       inkscape:connection-end-point="d4" />
    <path
       style="fill:none;stroke:#000000;stroke-width:0.42320156px;stroke-linecap:butt;stroke-linejoin:miter;stroke-opacity:1"
       d="m 389.66268,329.80325 1.67329,-3.24516"
       id="path6108"
       inkscape:connector-type="polyline"
       inkscape:connector-curvature="0"
       inkscape:connection-start="#path6041-2-9"
       inkscape:connection-start-point="d4"
       inkscape:connection-end="#path6041"
       inkscape:connection-end-point="d4" />
    <path
       style="fill:none;stroke:#000000;stroke-width:0.42320156px;stroke-linecap:butt;stroke-linejoin:miter;stroke-opacity:1"
       d="m 433.82217,303.78244 2.92715,0.37146"
       id="path6110"
       inkscape:connector-type="polyline"
       inkscape:connector-curvature="0"
       inkscape:connection-start="#path6041"
       inkscape:connection-start-point="d4"
       inkscape:connection-end="#path6041-4"
       inkscape:connection-end-point="d4" />
    <path
       style="fill:none;stroke:#000000;stroke-width:0.42320156px;stroke-linecap:butt;stroke-linejoin:miter;stroke-opacity:1"
       d="m 457.86919,336.66971 -0.81553,3.04238"
       id="path6112"
       inkscape:connector-type="polyline"
       inkscape:connector-curvature="0"
       inkscape:connection-start="#path6041-4"
       inkscape:connection-start-point="d4"
       inkscape:connection-end="#path6041-2"
       inkscape:connection-end-point="d4" />
    <path
       sodipodi:type="arc"
       style="fill:#ffffff;fill-opacity:1;stroke:#000000;stroke-width:1;stroke-miterlimit:4;stroke-opacity:1;stroke-dasharray:none;stroke-dashoffset:0"
       id="path5279-83-5-5"
       sodipodi:cx="344.28571"
       sodipodi:cy="313.79074"
       sodipodi:rx="21.428572"
       sodipodi:ry="21.428572"
       d="m 365.71428,313.79074 c 0,11.83467 -9.5939,21.42857 -21.42857,21.42857 -11.83468,0 -21.42858,-9.5939 -21.42858,-21.42857 0,-11.83467 9.5939,-21.42857 21.42858,-21.42857 11.83467,0 21.42857,9.5939 21.42857,21.42857 z"
       transform="matrix(0.42320154,0,0,0.42320154,73.299068,251.62674)" />
    <path
       sodipodi:type="arc"
       style="fill:#ffffff;fill-opacity:1;stroke:#000000;stroke-width:1;stroke-miterlimit:4;stroke-opacity:1;stroke-dasharray:none;stroke-dashoffset:0"
       id="path5279-7-0-5-4"
       sodipodi:cx="344.28571"
       sodipodi:cy="313.79074"
       sodipodi:rx="21.428572"
       sodipodi:ry="21.428572"
       d="m 365.71428,313.79074 c 0,11.83467 -9.5939,21.42857 -21.42857,21.42857 -11.83468,0 -21.42858,-9.5939 -21.42858,-21.42857 0,-11.83467 9.5939,-21.42857 21.42858,-21.42857 11.83467,0 21.42857,9.5939 21.42857,21.42857 z"
       transform="matrix(0.42320154,0,0,0.42320154,99.295732,248.60388)" />
    <path
       sodipodi:type="arc"
       style="fill:#ffffff;fill-opacity:1;stroke:#000000;stroke-width:1;stroke-miterlimit:4;stroke-opacity:1;stroke-dasharray:none;stroke-dashoffset:0"
       id="path5279-9-8-8-5"
       sodipodi:cx="344.28571"
       sodipodi:cy="313.79074"
       sodipodi:rx="21.428572"
       sodipodi:ry="21.428572"
       d="m 365.71428,313.79074 c 0,11.83467 -9.5939,21.42857 -21.42857,21.42857 -11.83468,0 -21.42858,-9.5939 -21.42858,-21.42857 0,-11.83467 9.5939,-21.42857 21.42858,-21.42857 11.83467,0 21.42857,9.5939 21.42857,21.42857 z"
       transform="matrix(0.42320154,0,0,0.42320154,150.12228,251.92934)" />
    <path
       sodipodi:type="arc"
       style="fill:#ffffff;fill-opacity:1;stroke:#000000;stroke-width:1;stroke-miterlimit:4;stroke-opacity:1;stroke-dasharray:none;stroke-dashoffset:0"
       id="path5279-0-9-1-6"
       sodipodi:cx="344.28571"
       sodipodi:cy="313.79074"
       sodipodi:rx="21.428572"
       sodipodi:ry="21.428572"
       d="m 365.71428,313.79074 c 0,11.83467 -9.5939,21.42857 -21.42857,21.42857 -11.83468,0 -21.42858,-9.5939 -21.42858,-21.42857 0,-11.83467 9.5939,-21.42857 21.42858,-21.42857 11.83467,0 21.42857,9.5939 21.42857,21.42857 z"
       transform="matrix(0.42320154,0,0,0.42320154,90.831704,273.99597)" />
    <path
       sodipodi:type="arc"
       style="fill:#ffffff;fill-opacity:1;stroke:#000000;stroke-width:1;stroke-miterlimit:4;stroke-opacity:1;stroke-dasharray:none;stroke-dashoffset:0"
       id="path5279-2-3-9-9"
       sodipodi:cx="344.28571"
       sodipodi:cy="313.79074"
       sodipodi:rx="21.428572"
       sodipodi:ry="21.428572"
       d="m 365.71428,313.79074 c 0,11.83467 -9.5939,21.42857 -21.42857,21.42857 -11.83468,0 -21.42858,-9.5939 -21.42858,-21.42857 0,-11.83467 9.5939,-21.42857 21.42858,-21.42857 11.83467,0 21.42857,9.5939 21.42857,21.42857 z"
       transform="matrix(0.42320154,0,0,0.42320154,150.38988,284.51555)" />
    <path
       sodipodi:type="arc"
       style="fill:#ffffff;fill-opacity:1;stroke:#000000;stroke-width:1;stroke-miterlimit:4;stroke-opacity:1;stroke-dasharray:none;stroke-dashoffset:0"
       id="path5279-5-2-8-8"
       sodipodi:cx="344.28571"
       sodipodi:cy="313.79074"
       sodipodi:rx="21.428572"
       sodipodi:ry="21.428572"
       d="m 365.71428,313.79074 c 0,11.83467 -9.5939,21.42857 -21.42857,21.42857 -11.83468,0 -21.42858,-9.5939 -21.42858,-21.42857 0,-11.83467 9.5939,-21.42857 21.42858,-21.42857 11.83467,0 21.42857,9.5939 21.42857,21.42857 z"
       transform="matrix(0.42320154,0,0,0.42320154,62.37378,319.07349)" />
    <path
       sodipodi:type="arc"
       style="fill:#ffffff;fill-opacity:1;stroke:#000000;stroke-width:1;stroke-miterlimit:4;stroke-opacity:1;stroke-dasharray:none;stroke-dashoffset:0"
       id="path5279-1-0-5-3"
       sodipodi:cx="344.28571"
       sodipodi:cy="313.79074"
       sodipodi:rx="21.428572"
       sodipodi:ry="21.428572"
       d="m 365.71428,313.79074 c 0,11.83467 -9.5939,21.42857 -21.42857,21.42857 -11.83468,0 -21.42858,-9.5939 -21.42858,-21.42857 0,-11.83467 9.5939,-21.42857 21.42858,-21.42857 11.83467,0 21.42857,9.5939 21.42857,21.42857 z"
       transform="matrix(0.42320154,0,0,0.42320154,123.87519,318.0427)" />
    <path
       sodipodi:type="arc"
       style="fill:#ffffff;fill-opacity:1;stroke:#000000;stroke-width:1;stroke-miterlimit:4;stroke-opacity:1;stroke-dasharray:none;stroke-dashoffset:0"
       id="path5279-8-6-9-7"
       sodipodi:cx="344.28571"
       sodipodi:cy="313.79074"
       sodipodi:rx="21.428572"
       sodipodi:ry="21.428572"
       d="m 365.71428,313.79074 c 0,11.83467 -9.5939,21.42857 -21.42857,21.42857 -11.83468,0 -21.42858,-9.5939 -21.42858,-21.42857 0,-11.83467 9.5939,-21.42857 21.42858,-21.42857 11.83467,0 21.42857,9.5939 21.42857,21.42857 z"
       transform="matrix(0.42320154,0,0,0.42320154,143.429,337.8899)" />
    <path
       style="fill:none;stroke:#000000;stroke-width:0.42320156px;stroke-linecap:butt;stroke-linejoin:miter;stroke-opacity:1"
       d="m 235.98922,382.44813 -7.97915,0.92781"
       id="path5888-3-6"
       inkscape:connector-type="polyline"
       inkscape:connector-curvature="0"
       inkscape:connection-start="#path5279-7-0-5-4"
       inkscape:connection-start-point="d4"
       inkscape:connection-end="#path5279-83-5-5"
       inkscape:connection-end-point="d4" />
    <path
       style="fill:none;stroke:#000000;stroke-width:0.42320156px;stroke-linecap:butt;stroke-linejoin:miter;stroke-opacity:1"
       d="m 295.89899,393.79437 0.11866,14.4496"
       id="path5892-5-3"
       inkscape:connector-type="polyline"
       inkscape:connector-curvature="0"
       inkscape:connection-end-point="d4"
       inkscape:connection-end="#path5279-2-3-9-9"
       inkscape:connection-start-point="d4"
       inkscape:connection-start="#path5279-9-8-8-5" />
    <path
       style="fill:none;stroke:#000000;stroke-width:0.42320156px;stroke-linecap:butt;stroke-linejoin:miter;stroke-opacity:1"
       d="m 239.40247,398.18713 2.72698,-8.18096"
       id="path5910-1-8"
       inkscape:connector-type="polyline"
       inkscape:connector-curvature="0"
       inkscape:connection-end="#path5279-7-0-5-4"
       inkscape:connection-end-point="d4"
       inkscape:connection-start-point="d4"
       inkscape:connection-start="#path5279-0-9-1-6" />
    <path
       style="fill:none;stroke:#000000;stroke-width:0.55677295px;stroke-linecap:butt;stroke-linejoin:miter;stroke-opacity:1"
       d="m 231.69222,414.46202 -18.77447,29.73887"
       id="path6293"
       inkscape:connector-type="polyline"
       inkscape:connector-curvature="0"
       inkscape:connection-start="#path5279-0-9-1-6"
       inkscape:connection-start-point="d4"
       inkscape:connection-end="#path5279-5-2-8-8"
       inkscape:connection-end-point="d4" />
    <path
       style="fill:none;stroke:#000000;stroke-width:0.55677295px;stroke-linecap:butt;stroke-linejoin:miter;stroke-opacity:1"
       d="m 254.04756,381.9927 32.72738,2.14127"
       id="path6295"
       inkscape:connector-type="polyline"
       inkscape:connector-curvature="0"
       inkscape:connection-start="#path5279-7-0-5-4"
       inkscape:connection-start-point="d4"
       inkscape:connection-end="#path5279-9-8-8-5"
       inkscape:connection-end-point="d4" />
    <path
       style="fill:none;stroke:#000000;stroke-width:0.55677295px;stroke-linecap:butt;stroke-linejoin:miter;stroke-opacity:1"
       d="m 290.46659,424.42562 -15.26363,19.30046"
       id="path6297"
       inkscape:connector-type="polyline"
       inkscape:connector-curvature="0"
       inkscape:connection-start="#path5279-2-3-9-9"
       inkscape:connection-start-point="d4"
       inkscape:connection-end="#path5279-1-0-5-3"
       inkscape:connection-end-point="d4" />
    <path
       style="fill:none;stroke:#000000;stroke-width:0.55677295px;stroke-linecap:butt;stroke-linejoin:miter;stroke-opacity:1"
       d="m 294.91923,426.30573 -4.6151,35.38744"
       id="path6299"
       inkscape:connector-type="polyline"
       inkscape:connector-curvature="0"
       inkscape:connection-start="#path5279-2-3-9-9"
       inkscape:connection-start-point="d4"
       inkscape:connection-end="#path5279-8-6-9-7"
       inkscape:connection-end-point="d4" />
    <text
       xml:space="preserve"
       style="font-size:16px;font-style:normal;font-variant:normal;font-weight:normal;font-stretch:normal;text-align:start;line-height:125%;letter-spacing:0px;word-spacing:0px;writing-mode:lr-tb;text-anchor:start;fill:#000000;fill-opacity:1;stroke:none;font-family:Times New Roman;-inkscape-font-specification:'Times New Roman,'"
       x="250.51784"
       y="163.67305"
       id="text6301"
       sodipodi:linespacing="125%"><tspan
         sodipodi:role="line"
         id="tspan6303"
         x="250.51784"
         y="163.67305">problem</tspan></text>
    <path
       style="fill:none;stroke:#000000;stroke-width:1px;stroke-linecap:butt;stroke-linejoin:miter;stroke-opacity:1;marker-end:url(#Arrow2Lend)"
       d="m 335.71429,169.50504 37.14285,21.42857"
       id="path6493"
       inkscape:connector-type="polyline"
       inkscape:connector-curvature="0" />
    <path
       style="fill:none;stroke:#000000;stroke-width:1px;stroke-linecap:butt;stroke-linejoin:miter;stroke-opacity:1;marker-end:url(#Arrow2Lend)"
       d="m 361.42857,212.36218 -41.42857,20"
       id="path6495"
       inkscape:connector-type="polyline"
       inkscape:connector-curvature="0" />
    <path
       style="fill:none;stroke:#000000;stroke-width:1px;stroke-linecap:butt;stroke-linejoin:miter;stroke-opacity:1;marker-end:url(#Arrow2Lend)"
       d="m 318.57143,272.36218 40,27.14286"
       id="path6497"
       inkscape:connector-type="polyline"
       inkscape:connector-curvature="0" />
    <path
       style="fill:none;stroke:#000000;stroke-width:1px;stroke-linecap:butt;stroke-linejoin:miter;stroke-opacity:1;marker-end:url(#Arrow2Lend)"
       d="m 350.57143,333.50504 -42.85714,21.42857"
       id="path6499"
       inkscape:connector-type="polyline"
       inkscape:connector-curvature="0" />
    <text
       xml:space="preserve"
       style="font-size:16px;font-style:normal;font-variant:normal;font-weight:normal;font-stretch:normal;text-align:start;line-height:125%;letter-spacing:0px;word-spacing:0px;writing-mode:lr-tb;text-anchor:start;fill:#000000;fill-opacity:1;stroke:none;font-family:Times New Roman;-inkscape-font-specification:'Times New Roman,'"
       x="341.72864"
       y="203.68309"
       id="text6301-9"
       sodipodi:linespacing="125%"><tspan
         sodipodi:role="line"
         id="tspan6303-8"
         x="341.72864"
         y="203.68309">Partition</tspan></text>
    <text
       xml:space="preserve"
       style="font-size:16px;font-style:normal;font-variant:normal;font-weight:normal;font-stretch:normal;text-align:start;line-height:125%;letter-spacing:0px;word-spacing:0px;writing-mode:lr-tb;text-anchor:start;fill:#000000;fill-opacity:1;stroke:none;font-family:Times New Roman;-inkscape-font-specification:'Times New Roman,'"
       x="314.79718"
       y="246.655"
       id="text6301-9-6"
       sodipodi:linespacing="125%"><tspan
         sodipodi:role="line"
         id="tspan6303-8-8"
         x="314.79718"
         y="246.655">Communicate</tspan></text>
    <text
       xml:space="preserve"
       style="font-size:16px;font-style:normal;font-variant:normal;font-weight:normal;font-stretch:normal;text-align:start;line-height:125%;letter-spacing:0px;word-spacing:0px;writing-mode:lr-tb;text-anchor:start;fill:#000000;fill-opacity:1;stroke:none;font-family:Times New Roman;-inkscape-font-specification:'Times New Roman,'"
       x="293.60428"
       y="318.37582"
       id="text6301-9-8"
       sodipodi:linespacing="125%"><tspan
         sodipodi:role="line"
         id="tspan6303-8-5"
         x="293.60428"
         y="318.37582">Agglomerate</tspan></text>
    <text
       xml:space="preserve"
       style="font-size:16px;font-style:normal;font-variant:normal;font-weight:normal;font-stretch:normal;text-align:start;line-height:125%;letter-spacing:0px;word-spacing:0px;writing-mode:lr-tb;text-anchor:start;fill:#000000;fill-opacity:1;stroke:none;font-family:Times New Roman;-inkscape-font-specification:'Times New Roman,'"
       x="309.94324"
       y="368.27643"
       id="text6301-9-8-6"
       sodipodi:linespacing="125%"><tspan
         sodipodi:role="line"
         id="tspan6303-8-5-3"
         x="309.94324"
         y="368.27643">Map</tspan></text>
  </g>
</svg>
