<?xml version="1.0" encoding="UTF-8" standalone="no"?>
<!DOCTYPE svg PUBLIC "-//W3C//DTD SVG 1.1//EN"
 "http://www.w3.org/Graphics/SVG/1.1/DTD/svg11.dtd">
<!-- Generated by graphviz version 2.26.3 (20100126.1600)
 -->
<!-- Title: Grafo Pages: 1 -->
<svg width="854pt" height="160pt"
 viewBox="0.00 0.00 854.00 160.00" xmlns="http://www.w3.org/2000/svg" xmlns:xlink="http://www.w3.org/1999/xlink">
<g id="graph1" class="graph" transform="scale(1 1) rotate(0) translate(4 156)">
<title>Grafo</title>
<polygon fill="white" stroke="white" points="-4,5 -4,-156 851,-156 851,5 -4,5"/>
<text text-anchor="middle" x="423" y="-9.4" font-family="Times Roman,serif" font-size="14.00">Grafo</text>
<!-- START -->
<g id="node1" class="node"><title>START</title>
<polygon fill="none" stroke="black" points="62,-124 0,-98 62,-72 124,-98 62,-124"/>
<polyline fill="none" stroke="black" points="11.0663,-102.641 11.0663,-93.3593 "/>
<polyline fill="none" stroke="black" points="50.9337,-76.6407 73.0663,-76.6407 "/>
<polyline fill="none" stroke="black" points="112.934,-93.3593 112.934,-102.641 "/>
<polyline fill="none" stroke="black" points="73.0663,-119.359 50.9337,-119.359 "/>
<text text-anchor="middle" x="62" y="-94.4" font-family="Times Roman,serif" font-size="14.00">START</text>
</g>
<!-- stage1 -->
<g id="node6" class="node"><title>stage1</title>
<ellipse fill="none" stroke="black" cx="239" cy="-98" rx="44.0472" ry="18.3848"/>
<text text-anchor="middle" x="239" y="-94.4" font-family="Times Roman,serif" font-size="14.00">stage1</text>
</g>
<!-- START&#45;&gt;stage1 -->
<g id="edge4" class="edge"><title>START&#45;&gt;stage1</title>
<path fill="none" stroke="black" d="M124.404,-98C143.887,-98 165.223,-98 184.147,-98"/>
<polygon fill="black" stroke="black" points="184.385,-101.5 194.385,-98 184.385,-94.5001 184.385,-101.5"/>
<text text-anchor="middle" x="159" y="-103.4" font-family="Times Roman,serif" font-size="14.00">start</text>
</g>
<!-- [stage2] -->
<g id="node2" class="node"><title>[stage2]</title>
<ellipse fill="none" stroke="black" cx="429" cy="-98" rx="51.8276" ry="18.3848"/>
<text text-anchor="middle" x="429" y="-94.4" font-family="Times Roman,serif" font-size="14.00">[stage2]</text>
</g>
<!-- stage4 -->
<g id="node5" class="node"><title>stage4</title>
<ellipse fill="none" stroke="black" cx="619" cy="-98" rx="44.0472" ry="18.3848"/>
<text text-anchor="middle" x="619" y="-94.4" font-family="Times Roman,serif" font-size="14.00">stage4</text>
</g>
<!-- [stage2]&#45;&gt;stage4 -->
<g id="edge5" class="edge"><title>[stage2]&#45;&gt;stage4</title>
<path fill="none" stroke="black" d="M481.673,-98C507.366,-98 538.25,-98 564.218,-98"/>
<polygon fill="black" stroke="black" points="564.276,-101.5 574.276,-98 564.276,-94.5001 564.276,-101.5"/>
<text text-anchor="middle" x="528" y="-103.4" font-family="Times Roman,serif" font-size="14.00">output1</text>
</g>
<!-- stage5 -->
<g id="node3" class="node"><title>stage5</title>
<ellipse fill="none" stroke="black" cx="801" cy="-134" rx="44.0472" ry="18.3848"/>
<text text-anchor="middle" x="801" y="-130.4" font-family="Times Roman,serif" font-size="14.00">stage5</text>
</g>
<!-- stage5&#45;&gt;stage1 -->
<g id="edge2" class="edge"><title>stage5&#45;&gt;stage1</title>
<path fill="none" stroke="black" d="M756.31,-133.733C678.842,-133.119 514.61,-131.147 376,-125 343.068,-123.54 334.296,-126.604 302,-120 294.821,-118.532 287.344,-116.446 280.154,-114.138"/>
<polygon fill="black" stroke="black" points="281.176,-110.789 270.582,-110.889 278.927,-117.418 281.176,-110.789"/>
<text text-anchor="middle" x="528" y="-135.4" font-family="Times Roman,serif" font-size="14.00">output1</text>
</g>
<!-- stage3 -->
<g id="node4" class="node"><title>stage3</title>
<ellipse fill="none" stroke="black" cx="429" cy="-44" rx="44.0472" ry="18.3848"/>
<text text-anchor="middle" x="429" y="-40.4" font-family="Times Roman,serif" font-size="14.00">stage3</text>
</g>
<!-- stage4&#45;&gt;stage5 -->
<g id="edge3" class="edge"><title>stage4&#45;&gt;stage5</title>
<path fill="none" stroke="black" d="M663.194,-100.883C685.777,-102.938 713.574,-106.37 738,-112 745.063,-113.628 752.436,-115.774 759.546,-118.088"/>
<polygon fill="black" stroke="black" points="758.431,-121.405 769.025,-121.314 760.686,-114.779 758.431,-121.405"/>
<text text-anchor="middle" x="710" y="-117.4" font-family="Times Roman,serif" font-size="14.00">output1</text>
</g>
<!-- stage6 -->
<g id="node7" class="node"><title>stage6</title>
<ellipse fill="none" stroke="black" cx="801" cy="-70" rx="44.0472" ry="18.3848"/>
<text text-anchor="middle" x="801" y="-66.4" font-family="Times Roman,serif" font-size="14.00">stage6</text>
</g>
<!-- stage4&#45;&gt;stage6 -->
<g id="edge1" class="edge"><title>stage4&#45;&gt;stage6</title>
<path fill="none" stroke="black" d="M646.135,-83.5763C656.975,-78.5665 669.771,-73.5636 682,-71 703.017,-66.5939 726.585,-65.6008 747.167,-65.9756"/>
<polygon fill="black" stroke="black" points="747.219,-69.4785 757.317,-66.2729 747.424,-62.4815 747.219,-69.4785"/>
<text text-anchor="middle" x="710" y="-76.4" font-family="Times Roman,serif" font-size="14.00">output2</text>
</g>
<!-- stage1&#45;&gt;[stage2] -->
<g id="edge6" class="edge"><title>stage1&#45;&gt;[stage2]</title>
<path fill="none" stroke="black" d="M283.547,-98C308.153,-98 339.121,-98 366.153,-98"/>
<polygon fill="black" stroke="black" points="366.298,-101.5 376.298,-98 366.298,-94.5001 366.298,-101.5"/>
<text text-anchor="middle" x="330" y="-103.4" font-family="Times Roman,serif" font-size="14.00">output1</text>
</g>
<!-- stage1&#45;&gt;stage3 -->
<g id="edge7" class="edge"><title>stage1&#45;&gt;stage3</title>
<path fill="none" stroke="black" d="M272.168,-85.7958C281.739,-82.4438 292.235,-78.9289 302,-76 327.631,-68.3122 356.537,-60.93 380.289,-55.1971"/>
<polygon fill="black" stroke="black" points="381.216,-58.5741 390.128,-52.845 379.588,-51.7659 381.216,-58.5741"/>
<text text-anchor="middle" x="330" y="-81.4" font-family="Times Roman,serif" font-size="14.00">output2</text>
</g>
</g>
</svg>
