<?xml version="1.0" encoding="UTF-8" standalone="no"?>
<!DOCTYPE svg PUBLIC "-//W3C//DTD SVG 1.1//EN"
 "http://www.w3.org/Graphics/SVG/1.1/DTD/svg11.dtd">
<!-- Generated by graphviz version 2.26.3 (20100126.1600)
 -->
<!-- Title: Graph (0x256f160) Pages: 1 -->
<svg width="800pt" height="129pt"
 viewBox="0.00 0.00 800.00 129.00" xmlns="http://www.w3.org/2000/svg" xmlns:xlink="http://www.w3.org/1999/xlink">
<g id="graph1" class="graph" transform="scale(1 1) rotate(0) translate(4 125)">
<title>Graph (0x256f160)</title>
<polygon fill="white" stroke="white" points="-4,5 -4,-125 797,-125 797,5 -4,5"/>
<!-- stage1 -->
<g id="node1" class="node"><title>stage1</title>
<ellipse fill="none" stroke="black" cx="45" cy="-49" rx="44.0472" ry="18.3848"/>
<text text-anchor="middle" x="45" y="-45.4" font-family="Times Roman,serif" font-size="14.00">stage1</text>
</g>
<!-- stage2 -->
<g id="node3" class="node"><title>stage2</title>
<ellipse fill="none" stroke="black" cx="279" cy="-103" rx="44.0472" ry="18.3848"/>
<text text-anchor="middle" x="279" y="-99.4" font-family="Times Roman,serif" font-size="14.00">stage2</text>
</g>
<!-- stage1&#45;&gt;stage2 -->
<g id="edge8" class="edge"><title>stage1&#45;&gt;stage2</title>
<path fill="none" stroke="black" d="M77.4066,-61.3672C87.1475,-64.7983 97.925,-68.3147 108,-71 147.275,-81.4683 192.514,-89.7737 226.592,-95.2973"/>
<polygon fill="black" stroke="black" points="226.364,-98.8051 236.79,-96.9215 227.465,-91.8922 226.364,-98.8051"/>
<text text-anchor="middle" x="162" y="-98.4" font-family="Times Roman,serif" font-size="14.00">stage1.output1</text>
</g>
<!-- stage3 -->
<g id="node5" class="node"><title>stage3</title>
<ellipse fill="none" stroke="black" cx="279" cy="-49" rx="44.0472" ry="18.3848"/>
<text text-anchor="middle" x="279" y="-45.4" font-family="Times Roman,serif" font-size="14.00">stage3</text>
</g>
<!-- stage1&#45;&gt;stage3 -->
<g id="edge9" class="edge"><title>stage1&#45;&gt;stage3</title>
<path fill="none" stroke="black" d="M89.5644,-49C127.827,-49 183.129,-49 224.112,-49"/>
<polygon fill="black" stroke="black" points="224.204,-52.5001 234.204,-49 224.204,-45.5001 224.204,-52.5001"/>
<text text-anchor="middle" x="162" y="-54.4" font-family="Times Roman,serif" font-size="14.00">stage1.output2</text>
</g>
<!-- stage4 -->
<g id="node7" class="node"><title>stage4</title>
<ellipse fill="none" stroke="black" cx="513" cy="-86" rx="44.0472" ry="18.3848"/>
<text text-anchor="middle" x="513" y="-82.4" font-family="Times Roman,serif" font-size="14.00">stage4</text>
</g>
<!-- stage2&#45;&gt;stage4 -->
<g id="edge10" class="edge"><title>stage2&#45;&gt;stage4</title>
<path fill="none" stroke="black" d="M323.014,-99.8024C361.581,-97.0005 417.764,-92.9188 459.033,-89.9207"/>
<polygon fill="black" stroke="black" points="459.464,-93.3987 469.184,-89.1832 458.956,-86.4171 459.464,-93.3987"/>
<text text-anchor="middle" x="396" y="-102.4" font-family="Times Roman,serif" font-size="14.00">stage2.output1</text>
</g>
<!-- stage5 -->
<g id="node9" class="node"><title>stage5</title>
<ellipse fill="none" stroke="black" cx="747" cy="-86" rx="44.0472" ry="18.3848"/>
<text text-anchor="middle" x="747" y="-82.4" font-family="Times Roman,serif" font-size="14.00">stage5</text>
</g>
<!-- stage4&#45;&gt;stage5 -->
<g id="edge11" class="edge"><title>stage4&#45;&gt;stage5</title>
<path fill="none" stroke="black" d="M557.564,-86C595.827,-86 651.129,-86 692.112,-86"/>
<polygon fill="black" stroke="black" points="692.204,-89.5001 702.204,-86 692.204,-82.5001 692.204,-89.5001"/>
<text text-anchor="middle" x="630" y="-91.4" font-family="Times Roman,serif" font-size="14.00">stage4.output1</text>
</g>
<!-- stage6 -->
<g id="node11" class="node"><title>stage6</title>
<ellipse fill="none" stroke="black" cx="747" cy="-18" rx="44.0472" ry="18.3848"/>
<text text-anchor="middle" x="747" y="-14.4" font-family="Times Roman,serif" font-size="14.00">stage6</text>
</g>
<!-- stage4&#45;&gt;stage6 -->
<g id="edge12" class="edge"><title>stage4&#45;&gt;stage6</title>
<path fill="none" stroke="black" d="M546.199,-73.8963C555.77,-70.546 566.258,-67.0067 576,-64 617.174,-51.2916 664.522,-38.7097 698.941,-29.9254"/>
<polygon fill="black" stroke="black" points="699.906,-33.2916 708.738,-27.4386 698.184,-26.5068 699.906,-33.2916"/>
<text text-anchor="middle" x="630" y="-69.4" font-family="Times Roman,serif" font-size="14.00">stage4.output2</text>
</g>
<!-- stage6&#45;&gt;stage1 -->
<g id="edge7" class="edge"><title>stage6&#45;&gt;stage1</title>
<path fill="none" stroke="black" d="M702.658,-16.3499C613.656,-13.4785 406.969,-9.02956 234,-22 187.02,-25.5229 133.945,-33.4571 96.0264,-39.8182"/>
<polygon fill="black" stroke="black" points="95.0225,-36.4386 85.7508,-41.5656 96.1961,-43.3395 95.0225,-36.4386"/>
<text text-anchor="middle" x="396" y="-21.4" font-family="Times Roman,serif" font-size="14.00">stage6.output1</text>
</g>
</g>
</svg>
