<?xml version="1.0" encoding="UTF-8" standalone="no"?>
<!-- Generated by graphviz version 2.26.3 (20100126.1600)
 -->

<!-- Title: Graph (0x256f160) Pages: 1 -->

<svg
   xmlns:dc="http://purl.org/dc/elements/1.1/"
   xmlns:cc="http://creativecommons.org/ns#"
   xmlns:rdf="http://www.w3.org/1999/02/22-rdf-syntax-ns#"
   xmlns:svg="http://www.w3.org/2000/svg"
   xmlns="http://www.w3.org/2000/svg"
   xmlns:sodipodi="http://sodipodi.sourceforge.net/DTD/sodipodi-0.dtd"
   xmlns:inkscape="http://www.inkscape.org/namespaces/inkscape"
   width="683.51086"
   height="111.64579"
   viewBox="0 0 546.80869 89.316632"
   id="svg2"
   version="1.1"
   inkscape:version="0.48.1 r9760"
   sodipodi:docname="mock.svg">
  <metadata
     id="metadata109">
    <rdf:RDF>
      <cc:Work
         rdf:about="">
        <dc:format>image/svg+xml</dc:format>
        <dc:type
           rdf:resource="http://purl.org/dc/dcmitype/StillImage" />
      </cc:Work>
    </rdf:RDF>
  </metadata>
  <defs
     id="defs107" />
  <sodipodi:namedview
     pagecolor="#ffffff"
     bordercolor="#666666"
     borderopacity="1"
     objecttolerance="10"
     gridtolerance="10"
     guidetolerance="10"
     inkscape:pageopacity="0"
     inkscape:pageshadow="2"
     inkscape:window-width="1680"
     inkscape:window-height="975"
     id="namedview105"
     showgrid="false"
     fit-margin-top="0"
     fit-margin-left="0"
     fit-margin-right="0"
     fit-margin-bottom="0"
     inkscape:zoom="0.499"
     inkscape:cx="504.63302"
     inkscape:cy="55.445891"
     inkscape:window-x="0"
     inkscape:window-y="25"
     inkscape:window-maximized="1"
     inkscape:current-layer="svg2" />
  <g
     id="graph1"
     class="graph"
     transform="matrix(0.68180636,0,0,0.68180636,3.0681286,85.566698)">
    <title
       id="title5">Graph (0x256f160)</title>
    <polygon
       points="-4,5 -4,5 -4,-125 797,-125 797,5 "
       id="polygon7"
       style="fill:#ffffff;stroke:#ffffff" />
    <!-- stage1 -->
    <g
       id="node1"
       class="node">
      <title
         id="title10">stage1</title>
      <ellipse
         cx="45"
         cy="-49"
         rx="44.047199"
         ry="18.3848"
         id="ellipse12"
         d="m 89.047199,-49 c 0,10.153645 -19.720603,18.3848 -44.047199,18.3848 -24.326596,0 -44.04719925,-8.231155 -44.04719925,-18.3848 0,-10.153645 19.72060325,-18.3848 44.04719925,-18.3848 24.326596,0 44.047199,8.231155 44.047199,18.3848 z"
         sodipodi:cx="45"
         sodipodi:cy="-49"
         sodipodi:rx="44.047199"
         sodipodi:ry="18.3848"
         style="fill:none;stroke:#000000" />
      <text
         x="45"
         y="-45.400002"
         font-size="14.00"
         id="text14"
         style="font-size:14px;text-anchor:middle;font-family:'Times Roman,serif'">stage1</text>
    </g>
    <!-- stage2 -->
    <g
       id="node3"
       class="node">
      <title
         id="title17">stage2</title>
      <ellipse
         cx="279"
         cy="-103"
         rx="44.047199"
         ry="18.3848"
         id="ellipse19"
         d="m 323.0472,-103 c 0,10.153645 -19.7206,18.3848 -44.0472,18.3848 -24.3266,0 -44.0472,-8.231155 -44.0472,-18.3848 0,-10.15364 19.7206,-18.3848 44.0472,-18.3848 24.3266,0 44.0472,8.23116 44.0472,18.3848 z"
         sodipodi:cx="279"
         sodipodi:cy="-103"
         sodipodi:rx="44.047199"
         sodipodi:ry="18.3848"
         style="fill:none;stroke:#000000" />
      <text
         x="279"
         y="-99.400002"
         font-size="14.00"
         id="text21"
         style="font-size:14px;text-anchor:middle;font-family:'Times Roman,serif'">stage2</text>
    </g>
    <!-- stage1&#45;&gt;stage2 -->
    <g
       id="edge8"
       class="edge">
      <title
         id="title24">stage1-&gt;stage2</title>
      <path
         d="M 77.4066,-61.3672 C 87.1475,-64.7983 97.925,-68.3147 108,-71 c 39.275,-10.4683 84.514,-18.7737 118.592,-24.2973"
         id="path26"
         inkscape:connector-curvature="0"
         style="fill:none;stroke:#000000" />
      <polygon
         points="226.364,-98.8051 236.79,-96.9215 227.465,-91.8922 226.364,-98.8051 "
         id="polygon28"
         style="fill:#000000;stroke:#000000" />
      <text
         x="162"
         y="-98.400002"
         font-size="14.00"
         id="text30"
         style="font-size:14px;text-anchor:middle;font-family:'Times Roman,serif'">stage1.output1</text>
    </g>
    <!-- stage3 -->
    <g
       id="node5"
       class="node">
      <title
         id="title33">stage3</title>
      <ellipse
         cx="279"
         cy="-49"
         rx="44.047199"
         ry="18.3848"
         id="ellipse35"
         d="m 323.0472,-49 c 0,10.153645 -19.7206,18.3848 -44.0472,18.3848 -24.3266,0 -44.0472,-8.231155 -44.0472,-18.3848 0,-10.153645 19.7206,-18.3848 44.0472,-18.3848 24.3266,0 44.0472,8.231155 44.0472,18.3848 z"
         sodipodi:cx="279"
         sodipodi:cy="-49"
         sodipodi:rx="44.047199"
         sodipodi:ry="18.3848"
         style="fill:none;stroke:#000000" />
      <text
         x="279"
         y="-45.400002"
         font-size="14.00"
         id="text37"
         style="font-size:14px;text-anchor:middle;font-family:'Times Roman,serif'">stage3</text>
    </g>
    <!-- stage1&#45;&gt;stage3 -->
    <g
       id="edge9"
       class="edge">
      <title
         id="title40">stage1-&gt;stage3</title>
      <path
         d="m 89.5644,-49 c 38.2626,0 93.5646,0 134.5476,0"
         id="path42"
         inkscape:connector-curvature="0"
         style="fill:none;stroke:#000000" />
      <polygon
         points="224.204,-52.5001 234.204,-49 224.204,-45.5001 224.204,-52.5001 "
         id="polygon44"
         style="fill:#000000;stroke:#000000" />
      <text
         x="162"
         y="-54.400002"
         font-size="14.00"
         id="text46"
         style="font-size:14px;text-anchor:middle;font-family:'Times Roman,serif'">stage1.output2</text>
    </g>
    <!-- stage4 -->
    <g
       id="node7"
       class="node">
      <title
         id="title49">stage4</title>
      <ellipse
         cx="513"
         cy="-86"
         rx="44.047199"
         ry="18.3848"
         id="ellipse51"
         d="m 557.0472,-86 c 0,10.153645 -19.7206,18.3848 -44.0472,18.3848 -24.3266,0 -44.0472,-8.231155 -44.0472,-18.3848 0,-10.153645 19.7206,-18.3848 44.0472,-18.3848 24.3266,0 44.0472,8.231155 44.0472,18.3848 z"
         sodipodi:cx="513"
         sodipodi:cy="-86"
         sodipodi:rx="44.047199"
         sodipodi:ry="18.3848"
         style="fill:none;stroke:#000000" />
      <text
         x="513"
         y="-82.400002"
         font-size="14.00"
         id="text53"
         style="font-size:14px;text-anchor:middle;font-family:'Times Roman,serif'">stage4</text>
    </g>
    <!-- stage2&#45;&gt;stage4 -->
    <g
       id="edge10"
       class="edge">
      <title
         id="title56">stage2-&gt;stage4</title>
      <path
         d="m 323.014,-99.8024 c 38.567,2.8019 94.75,6.8836 136.019,9.8817"
         id="path58"
         inkscape:connector-curvature="0"
         style="fill:none;stroke:#000000" />
      <polygon
         points="459.464,-93.3987 469.184,-89.1832 458.956,-86.4171 459.464,-93.3987 "
         id="polygon60"
         style="fill:#000000;stroke:#000000" />
      <text
         x="396"
         y="-102.4"
         font-size="14.00"
         id="text62"
         style="font-size:14px;text-anchor:middle;font-family:'Times Roman,serif'">stage2.output1</text>
    </g>
    <!-- stage5 -->
    <g
       id="node9"
       class="node">
      <title
         id="title65">stage5</title>
      <ellipse
         cx="747"
         cy="-86"
         rx="44.047199"
         ry="18.3848"
         id="ellipse67"
         d="m 791.0472,-86 c 0,10.153645 -19.7206,18.3848 -44.0472,18.3848 -24.3266,0 -44.0472,-8.231155 -44.0472,-18.3848 0,-10.153645 19.7206,-18.3848 44.0472,-18.3848 24.3266,0 44.0472,8.231155 44.0472,18.3848 z"
         sodipodi:cx="747"
         sodipodi:cy="-86"
         sodipodi:rx="44.047199"
         sodipodi:ry="18.3848"
         style="fill:none;stroke:#000000" />
      <text
         x="747"
         y="-82.400002"
         font-size="14.00"
         id="text69"
         style="font-size:14px;text-anchor:middle;font-family:'Times Roman,serif'">stage5</text>
    </g>
    <!-- stage4&#45;&gt;stage5 -->
    <g
       id="edge11"
       class="edge">
      <title
         id="title72">stage4-&gt;stage5</title>
      <path
         d="m 557.564,-86 c 38.263,0 93.565,0 134.548,0"
         id="path74"
         inkscape:connector-curvature="0"
         style="fill:none;stroke:#000000" />
      <polygon
         points="692.204,-89.5001 702.204,-86 692.204,-82.5001 692.204,-89.5001 "
         id="polygon76"
         style="fill:#000000;stroke:#000000" />
      <text
         x="630"
         y="-91.400002"
         font-size="14.00"
         id="text78"
         style="font-size:14px;text-anchor:middle;font-family:'Times Roman,serif'">stage4.output1</text>
    </g>
    <!-- stage6 -->
    <g
       id="node11"
       class="node">
      <title
         id="title81">stage6</title>
      <ellipse
         cx="747"
         cy="-18"
         rx="44.047199"
         ry="18.3848"
         id="ellipse83"
         d="m 791.0472,-18 c 0,10.1536446 -19.7206,18.38479996 -44.0472,18.38479996 -24.3266,0 -44.0472,-8.23115536 -44.0472,-18.38479996 0,-10.153645 19.7206,-18.3848 44.0472,-18.3848 24.3266,0 44.0472,8.231155 44.0472,18.3848 z"
         sodipodi:cx="747"
         sodipodi:cy="-18"
         sodipodi:rx="44.047199"
         sodipodi:ry="18.3848"
         style="fill:none;stroke:#000000" />
      <text
         x="747"
         y="-14.4"
         font-size="14.00"
         id="text85"
         style="font-size:14px;text-anchor:middle;font-family:'Times Roman,serif'">stage6</text>
    </g>
    <!-- stage4&#45;&gt;stage6 -->
    <g
       id="edge12"
       class="edge">
      <title
         id="title88">stage4-&gt;stage6</title>
      <path
         d="m 546.199,-73.8963 c 9.571,3.3503 20.059,6.8896 29.801,9.8963 41.174,12.7084 88.522,25.2903 122.941,34.0746"
         id="path90"
         inkscape:connector-curvature="0"
         style="fill:none;stroke:#000000" />
      <polygon
         points="699.906,-33.2916 708.738,-27.4386 698.184,-26.5068 699.906,-33.2916 "
         id="polygon92"
         style="fill:#000000;stroke:#000000" />
      <text
         x="630"
         y="-69.400002"
         font-size="14.00"
         id="text94"
         style="font-size:14px;text-anchor:middle;font-family:'Times Roman,serif'">stage4.output2</text>
    </g>
    <!-- stage6&#45;&gt;stage1 -->
    <g
       id="edge7"
       class="edge">
      <title
         id="title97">stage6-&gt;stage1</title>
      <path
         d="M 702.658,-16.3499 C 613.656,-13.4785 406.969,-9.02956 234,-22 187.02,-25.5229 133.945,-33.4571 96.0264,-39.8182"
         id="path99"
         inkscape:connector-curvature="0"
         style="fill:none;stroke:#000000" />
      <polygon
         points="95.0225,-36.4386 85.7508,-41.5656 96.1961,-43.3395 95.0225,-36.4386 "
         id="polygon101"
         style="fill:#000000;stroke:#000000" />
      <text
         x="396"
         y="-21.4"
         font-size="14.00"
         id="text103"
         style="font-size:14px;text-anchor:middle;font-family:'Times Roman,serif'">stage6.output1</text>
    </g>
  </g>
</svg>
