<?xml version="1.0" encoding="UTF-8" standalone="no"?>
<!-- Created with Inkscape (http://www.inkscape.org/) -->

<svg
   xmlns:dc="http://purl.org/dc/elements/1.1/"
   xmlns:cc="http://creativecommons.org/ns#"
   xmlns:rdf="http://www.w3.org/1999/02/22-rdf-syntax-ns#"
   xmlns:svg="http://www.w3.org/2000/svg"
   xmlns="http://www.w3.org/2000/svg"
   version="1.1"
   width="201.5625"
   height="115.3125"
   id="svg2"
   xml:space="preserve"><metadata
     id="metadata8"><rdf:RDF><cc:Work
         rdf:about=""><dc:format>image/svg+xml</dc:format><dc:type
           rdf:resource="http://purl.org/dc/dcmitype/StillImage" /><dc:title></dc:title></cc:Work></rdf:RDF></metadata><defs
     id="defs6" /><g
     transform="matrix(1.25,0,0,-1.25,0,115.3125)"
     id="g10"><path
       d="m 38.27,92.012 75.117,0 0,-63.781 -75.117,0 0,63.781 z"
       id="path14"
       style="fill:#ffffff;fill-opacity:1;fill-rule:evenodd;stroke:#000000;stroke-width:0.23999999;stroke-linecap:round;stroke-linejoin:round;stroke-miterlimit:10;stroke-opacity:1;stroke-dasharray:none" /><text
       x="39.268002"
       y="-83.010002"
       transform="scale(1,-1)"
       id="text16"
       style="font-size:11.19999981px;font-style:normal;font-variant:normal;font-weight:bold;font-stretch:normal;text-align:start;line-height:125%;writing-mode:lr-tb;text-anchor:start;font-family:Times New Roman;-inkscape-font-specification:'Times New Roman, Bold'"><tspan
         x="39.268002 44.826401 48.1576 53.159199 58.160801"
         y="-83.010002"
         id="tspan18"
         style="font-size:11.19999981px;font-style:normal;font-variant:normal;font-weight:bold;font-stretch:normal;text-align:start;line-height:125%;writing-mode:lr-tb;text-anchor:start;fill:#000000;fill-opacity:1;fill-rule:nonzero;stroke:none;font-family:Times New Roman;-inkscape-font-specification:'Times New Roman, Bold'">Stage</tspan></text>
<path
       d="m 59.289,80.672 46.77,0 0,-21 -46.77,0 0,21 z"
       id="path20"
       style="fill:#ffffff;fill-opacity:1;fill-rule:evenodd;stroke:#000000;stroke-width:0.23999999;stroke-linecap:round;stroke-linejoin:round;stroke-miterlimit:10;stroke-opacity:1;stroke-dasharray:none" /><text
       x="73.343002"
       y="-72.571999"
       transform="scale(1,-1)"
       id="text22"><tspan
         x="73.343002 78.223 82.223 85.766998 89.766998"
         y="-72.571999"
         id="tspan24"
         style="font-size:8px;font-variant:normal;font-weight:normal;writing-mode:lr-tb;fill:#000000;fill-opacity:1;fill-rule:nonzero;stroke:none;font-family:Times New Roman;-inkscape-font-specification:TimesNewRomanPSMT">Event</tspan><tspan
         x="69.790001 75.566002 79.110001 83.110001 87.110001 89.325996 92.870003"
         y="-62.972"
         id="tspan26"
         style="font-size:8px;font-variant:normal;font-weight:normal;writing-mode:lr-tb;fill:#000000;fill-opacity:1;fill-rule:nonzero;stroke:none;font-family:Times New Roman;-inkscape-font-specification:TimesNewRomanPSMT">Handler</tspan></text>
<path
       d="m 59.961,54.734 46.223,0 0,-21.797 -46.223,0 0,21.797 z"
       id="path28"
       style="fill:#ffffff;fill-opacity:1;fill-rule:evenodd;stroke:#000000;stroke-width:0.23999999;stroke-linecap:round;stroke-linejoin:round;stroke-miterlimit:10;stroke-opacity:1;stroke-dasharray:none" /><text
       x="63.408001"
       y="-35.338001"
       transform="scale(1,-1)"
       id="text30"><tspan
         x="63.408001 68.288002 72.288002 74.952003 78.496002 82.040001 88.040001 92.487999 96.487999 100.488"
         y="-35.338001"
         id="tspan32"
         style="font-size:8px;font-variant:normal;font-weight:normal;writing-mode:lr-tb;fill:#000000;fill-opacity:1;fill-rule:nonzero;stroke:none;font-family:Times New Roman;-inkscape-font-specification:TimesNewRomanPSMT">ThreadPool</tspan></text>
<path
       d="M 67.355,53.316 C 64.52,50.48 66.441,50.688 67.52,50.281 68.484,49.918 68.773,49.066 67.355,47.648"
       id="path34"
       style="fill:none;stroke:#000000;stroke-width:0.72000003;stroke-linecap:round;stroke-linejoin:round;stroke-miterlimit:10;stroke-opacity:1;stroke-dasharray:none" /><path
       d="M 67.355,47.648 C 64.52,44.812 66.441,45.02 67.52,44.613 68.484,44.25 68.773,43.395 67.355,41.98"
       id="path36"
       style="fill:none;stroke:#000000;stroke-width:0.72000003;stroke-linecap:round;stroke-linejoin:round;stroke-miterlimit:10;stroke-opacity:1;stroke-dasharray:none" /><path
       d="m 76.598,53.316 c -2.832,-2.836 -0.91,-2.628 0.168,-3.035 0.961,-0.363 1.25,-1.215 -0.168,-2.633"
       id="path38"
       style="fill:none;stroke:#000000;stroke-width:0.72000003;stroke-linecap:round;stroke-linejoin:round;stroke-miterlimit:10;stroke-opacity:1;stroke-dasharray:none" /><path
       d="m 76.598,47.648 c -2.832,-2.836 -0.91,-2.628 0.168,-3.035 0.961,-0.363 1.25,-1.218 -0.168,-2.633"
       id="path40"
       style="fill:none;stroke:#000000;stroke-width:0.72000003;stroke-linecap:round;stroke-linejoin:round;stroke-miterlimit:10;stroke-opacity:1;stroke-dasharray:none" /><path
       d="m 102.48,53.316 c -2.832,-2.836 -0.91,-2.628 0.168,-3.035 0.961,-0.363 1.25,-1.215 -0.168,-2.633"
       id="path42"
       style="fill:none;stroke:#000000;stroke-width:0.72000003;stroke-linecap:round;stroke-linejoin:round;stroke-miterlimit:10;stroke-opacity:1;stroke-dasharray:none" /><path
       d="m 102.48,47.648 c -2.832,-2.836 -0.91,-2.628 0.168,-3.035 0.961,-0.363 1.25,-1.218 -0.168,-2.633"
       id="path44"
       style="fill:none;stroke:#000000;stroke-width:0.72000003;stroke-linecap:round;stroke-linejoin:round;stroke-miterlimit:10;stroke-opacity:1;stroke-dasharray:none" /><path
       d="m 85.844,53.316 c -2.836,-2.836 -0.914,-2.628 0.164,-3.035 0.965,-0.363 1.254,-1.215 -0.164,-2.633"
       id="path46"
       style="fill:none;stroke:#000000;stroke-width:0.72000003;stroke-linecap:round;stroke-linejoin:round;stroke-miterlimit:10;stroke-opacity:1;stroke-dasharray:none" /><path
       d="M 85.844,47.648 C 83.008,44.812 84.93,45.02 86.008,44.613 86.973,44.25 87.262,43.395 85.844,41.98"
       id="path48"
       style="fill:none;stroke:#000000;stroke-width:0.72000003;stroke-linecap:round;stroke-linejoin:round;stroke-miterlimit:10;stroke-opacity:1;stroke-dasharray:none" /><text
       x="91.786003"
       y="-45.848"
       transform="scale(1,-1)"
       id="text50"><tspan
         x="91.786003 93.281998 94.786003"
         y="-45.848"
         id="tspan52"
         style="font-size:8px;font-variant:normal;font-weight:normal;writing-mode:lr-tb;fill:#000000;fill-opacity:1;fill-rule:nonzero;stroke:none;font-family:Times New Roman;-inkscape-font-specification:TimesNewRomanPSMT">...</tspan></text>
<path
       d="m 59.961,43.836 c -7.012,2.078 -8.418,13.691 -2.738,19.051"
       id="path54"
       style="fill:none;stroke:#000000;stroke-width:0.23998;stroke-linecap:round;stroke-linejoin:round;stroke-miterlimit:10;stroke-opacity:1;stroke-dasharray:none" /><path
       d="m 59.289,64.371 -1.75,-3.324 c -0.187,1.168 -0.914,2.18 -1.961,2.726 l 3.711,0.598 z"
       id="path56"
       style="fill:#000000;fill-opacity:1;fill-rule:evenodd;stroke:none" /><path
       d="m 106.059,65.98 c 6.082,-4.863 5.972,-16.292 2.589,-20.546"
       id="path58"
       style="fill:none;stroke:#000000;stroke-width:0.23998;stroke-linecap:round;stroke-linejoin:round;stroke-miterlimit:10;stroke-opacity:1;stroke-dasharray:none" /><path
       d="m 109.922,44.246 -3.742,-0.41 1.91,3.234 1.832,-2.824 z"
       id="path60"
       style="fill:#000000;fill-opacity:1;fill-rule:evenodd;stroke:none" /><path
       d="m 1.598,65.551 48.007,0 c 1.809,-3.395 1.809,-7.465 0,-10.86 l -48.007,0 c -1.809,3.395 -1.809,7.465 0,10.86 z"
       id="path62"
       style="fill:#ffffff;fill-opacity:1;fill-rule:evenodd;stroke:#000000;stroke-width:0.23999999;stroke-linecap:round;stroke-linejoin:round;stroke-miterlimit:10;stroke-opacity:1;stroke-dasharray:none" /><path
       d="m 49.605,65.551 c -1.808,-3.395 -1.808,-7.465 0,-10.86"
       id="path64"
       style="fill:none;stroke:#000000;stroke-width:0.23999999;stroke-linecap:round;stroke-linejoin:round;stroke-miterlimit:10;stroke-opacity:1;stroke-dasharray:none" /><text
       x="4.1532998"
       y="-57.720001"
       transform="scale(1,-1)"
       id="text66"><tspan
         x="4.1532998 9.0333004 13.0333 16.577299 20.577299 24.793299 30.5693 34.569302 38.1133 42.1133"
         y="-57.720001"
         id="tspan68"
         style="font-size:8px;font-variant:normal;font-weight:normal;writing-mode:lr-tb;fill:#000000;fill-opacity:1;fill-rule:nonzero;stroke:none;font-family:Times New Roman;-inkscape-font-specification:TimesNewRomanPSMT">EventQueue</tspan></text>
<path
       d="m 146.34,87.461 12.816,0 0,-10.742 -12.816,0 0,10.742 z"
       id="path70"
       style="fill:#ffffff;fill-opacity:1;fill-rule:evenodd;stroke:#000000;stroke-width:0.23999999;stroke-linecap:round;stroke-linejoin:round;stroke-miterlimit:10;stroke-opacity:1;stroke-dasharray:none" /><path
       d="m 142.512,83.773 5.25,0 c 0.558,-1.062 0.558,-2.335 0,-3.402 l -5.25,0 c -0.571,1.067 -0.571,2.34 0,3.402 z"
       id="path72"
       style="fill:#ffffff;fill-opacity:1;fill-rule:evenodd;stroke:#000000;stroke-width:0.23999999;stroke-linecap:round;stroke-linejoin:round;stroke-miterlimit:10;stroke-opacity:1;stroke-dasharray:none" /><path
       d="m 147.762,83.773 c -0.571,-1.062 -0.571,-2.335 0,-3.402"
       id="path74"
       style="fill:none;stroke:#000000;stroke-width:0.23999999;stroke-linecap:round;stroke-linejoin:round;stroke-miterlimit:10;stroke-opacity:1;stroke-dasharray:none" /><path
       d="m 146.34,63.363 14.172,0 0,-10.742 -14.172,0 0,10.742 z"
       id="path76"
       style="fill:#ffffff;fill-opacity:1;fill-rule:evenodd;stroke:#000000;stroke-width:0.23999999;stroke-linecap:round;stroke-linejoin:round;stroke-miterlimit:10;stroke-opacity:1;stroke-dasharray:none" /><path
       d="m 142.512,59.68 5.25,0 c 0.558,-1.063 0.558,-2.336 0,-3.403 l -5.25,0 c -0.571,1.067 -0.571,2.34 0,3.403 z"
       id="path78"
       style="fill:#ffffff;fill-opacity:1;fill-rule:evenodd;stroke:#000000;stroke-width:0.23999999;stroke-linecap:round;stroke-linejoin:round;stroke-miterlimit:10;stroke-opacity:1;stroke-dasharray:none" /><path
       d="m 147.762,59.68 c -0.571,-1.063 -0.571,-2.336 0,-3.403"
       id="path80"
       style="fill:none;stroke:#000000;stroke-width:0.23999999;stroke-linecap:round;stroke-linejoin:round;stroke-miterlimit:10;stroke-opacity:1;stroke-dasharray:none" /><path
       d="m 145.629,39.27 14.176,0 0,-10.742 -14.176,0 0,10.742 z"
       id="path82"
       style="fill:#ffffff;fill-opacity:1;fill-rule:evenodd;stroke:#000000;stroke-width:0.23999999;stroke-linecap:round;stroke-linejoin:round;stroke-miterlimit:10;stroke-opacity:1;stroke-dasharray:none" /><path
       d="m 141.801,35.586 5.25,0 c 0.558,-1.063 0.558,-2.34 0,-3.402 l -5.25,0 c -0.563,1.062 -0.563,2.339 0,3.402 z"
       id="path84"
       style="fill:#ffffff;fill-opacity:1;fill-rule:evenodd;stroke:#000000;stroke-width:0.23999999;stroke-linecap:round;stroke-linejoin:round;stroke-miterlimit:10;stroke-opacity:1;stroke-dasharray:none" /><path
       d="m 147.051,35.586 c -0.571,-1.063 -0.571,-2.34 0,-3.402"
       id="path86"
       style="fill:none;stroke:#000000;stroke-width:0.23999999;stroke-linecap:round;stroke-linejoin:round;stroke-miterlimit:10;stroke-opacity:1;stroke-dasharray:none" /><path
       d="m 106.059,72.691 c 4.25,1.227 9.98,3.188 14.55,4.727 5.332,1.797 9.082,3.023 18.563,4.285"
       id="path88"
       style="fill:none;stroke:#000000;stroke-width:0.23998;stroke-linecap:round;stroke-linejoin:round;stroke-miterlimit:10;stroke-opacity:1;stroke-dasharray:none" /><path
       d="m 138.539,83.32 3.551,-1.246 -3.129,-2.09 -0.422,3.336 z"
       id="path90"
       style="fill:#000000;fill-opacity:1;fill-rule:evenodd;stroke:none" /><path
       d="m 106.059,71.648 c -1.18,0.52 4.82,-1.878 10.832,-4.281 7.3,-2.922 14.609,-5.844 22.398,-8.469"
       id="path92"
       style="fill:none;stroke:#000000;stroke-width:0.23998;stroke-linecap:round;stroke-linejoin:round;stroke-miterlimit:10;stroke-opacity:1;stroke-dasharray:none" /><path
       d="m 139.422,60.625 2.668,-2.645 -3.719,-0.546 1.051,3.191 z"
       id="path94"
       style="fill:#000000;fill-opacity:1;fill-rule:evenodd;stroke:none" /><path
       d="m 106.059,70.172 c 3.132,-3.86 20.921,-30.59 32.48,-35.524"
       id="path96"
       style="fill:none;stroke:#000000;stroke-width:0.23998;stroke-linecap:round;stroke-linejoin:round;stroke-miterlimit:10;stroke-opacity:1;stroke-dasharray:none" /><path
       d="m 138.57,36.379 2.809,-2.492 -3.68,-0.754 0.871,3.246 z"
       id="path98"
       style="fill:#000000;fill-opacity:1;fill-rule:evenodd;stroke:none" /><text
       x="122.56"
       y="-72.473999"
       transform="scale(1,-1)"
       id="text100"
       style="font-size:7.19999981px;font-style:normal;font-variant:normal;font-weight:bold;font-stretch:normal;text-align:start;line-height:125%;writing-mode:lr-tb;text-anchor:start;font-family:Times New Roman;-inkscape-font-specification:'Times New Roman, Bold'"><tspan
         x="122.56 126.8928 128.5504 130.8864 133.888 136.5504 138.2144 140.8768"
         y="-72.473999"
         id="tspan102"
         style="font-size:7.19999981px;font-style:normal;font-variant:normal;font-weight:bold;font-stretch:normal;text-align:start;line-height:125%;writing-mode:lr-tb;text-anchor:start;fill:#000000;fill-opacity:1;fill-rule:nonzero;stroke:none;font-family:Times New Roman;-inkscape-font-specification:'Times New Roman, Bold'">Dispatch</tspan><tspan
         x="125.06 128.72079 131.716 134.3784 137.3736 139.04401"
         y="-65.274002"
         id="tspan104"
         style="font-size:7.19999981px;font-style:normal;font-variant:normal;font-weight:bold;font-stretch:normal;text-align:start;line-height:125%;writing-mode:lr-tb;text-anchor:start;fill:#000000;fill-opacity:1;fill-rule:nonzero;stroke:none;font-family:Times New Roman;-inkscape-font-specification:'Times New Roman, Bold'">Events</tspan></text>
<path
       d="m 32.598,54.691 0,-41.218 32.429,0"
       id="path106"
       style="fill:none;stroke:#000000;stroke-width:0.23998;stroke-linecap:round;stroke-linejoin:round;stroke-miterlimit:10;stroke-opacity:1;stroke-dasharray:none" /><path
       d="m 62.988,11.434 2.039,2.039 -2.039,2.043"
       id="path108"
       style="fill:none;stroke:#000000;stroke-width:0.23998;stroke-linecap:round;stroke-linejoin:round;stroke-miterlimit:10;stroke-opacity:1;stroke-dasharray:none" /><path
       d="m 49.605,60.121 c 4.012,2.254 1.817,8.274 7.161,9.731"
       id="path110"
       style="fill:none;stroke:#000000;stroke-width:0.23998;stroke-linecap:round;stroke-linejoin:round;stroke-miterlimit:10;stroke-opacity:1;stroke-dasharray:none" /><path
       d="m 59.289,70.172 -3.125,-2.086 c 0.395,1.113 0.238,2.348 -0.422,3.332 l 3.547,-1.246 z"
       id="path112"
       style="fill:#000000;fill-opacity:1;fill-rule:evenodd;stroke:none" /><text
       x="7.0872998"
       y="-40.328999"
       transform="scale(1,-1)"
       id="text114"
       style="font-size:7.19999981px;font-style:normal;font-variant:normal;font-weight:bold;font-stretch:normal;text-align:start;line-height:125%;writing-mode:lr-tb;text-anchor:start;font-family:Times New Roman;-inkscape-font-specification:'Times New Roman, Bold'"><tspan
         x="7.0872998 11.7465 15.0873 18.0825 21.416901 23.407299 26.408899"
         y="-40.328999"
         id="tspan116"
         style="font-size:7.19999981px;font-style:normal;font-variant:normal;font-weight:bold;font-stretch:normal;text-align:start;line-height:125%;writing-mode:lr-tb;text-anchor:start;fill:#000000;fill-opacity:1;fill-rule:nonzero;stroke:none;font-family:Times New Roman;-inkscape-font-specification:'Times New Roman, Bold'">Observe</tspan><tspan
         x="10.251998 13.810398 15.947998 19.147997 21.285599"
         y="-33.129002"
         id="tspan118"
         style="font-size:7.19999981px;font-style:normal;font-variant:normal;font-weight:bold;font-stretch:normal;text-align:start;line-height:125%;writing-mode:lr-tb;text-anchor:start;fill:#000000;fill-opacity:1;fill-rule:nonzero;stroke:none;font-family:Times New Roman;-inkscape-font-specification:'Times New Roman, Bold'">State</tspan><tspan
         x="99.903 103.903 107.2374 108.575 111.9094 114.9046 118.23901 121.2406 122.56541 125.5606"
         y="-20.052002"
         id="tspan120"
         style="font-size:7.19999981px;font-style:normal;font-variant:normal;font-weight:bold;font-stretch:normal;text-align:start;line-height:125%;writing-mode:lr-tb;text-anchor:start;fill:#000000;fill-opacity:1;fill-rule:nonzero;stroke:none;font-family:Times New Roman;-inkscape-font-specification:'Times New Roman, Bold'">Adjustsize</tspan></text>
<path
       d="m 64.488,16.184 c 0,3.914 3.172,7.086 7.086,7.086 3.914,0 7.086,-3.172 7.086,-7.086 0,-3.914 -3.172,-7.086 -7.086,-7.086 -3.914,0 -7.086,3.172 -7.086,7.086 z"
       id="path122"
       style="fill:#ffffff;fill-opacity:1;fill-rule:evenodd;stroke:#000000;stroke-width:0.23999999;stroke-linecap:round;stroke-linejoin:round;stroke-miterlimit:10;stroke-opacity:1;stroke-dasharray:none" /><path
       d="m 46.773,28.23 0,-9.398 18.231,0"
       id="path124"
       style="fill:none;stroke:#000000;stroke-width:0.23998;stroke-linecap:round;stroke-linejoin:round;stroke-miterlimit:10;stroke-opacity:1;stroke-dasharray:none" /><path
       d="m 62.961,16.793 2.043,2.039 -2.043,2.039"
       id="path126"
       style="fill:none;stroke:#000000;stroke-width:0.23998;stroke-linecap:round;stroke-linejoin:round;stroke-miterlimit:10;stroke-opacity:1;stroke-dasharray:none" /><path
       d="m 78.66,16.184 19.137,0 0,16.046"
       id="path128"
       style="fill:none;stroke:#000000;stroke-width:0.23998;stroke-linecap:round;stroke-linejoin:round;stroke-miterlimit:10;stroke-opacity:1;stroke-dasharray:none" /><path
       d="M 99.836,30.191 97.797,32.23 95.754,30.191"
       id="path130"
       style="fill:none;stroke:#000000;stroke-width:0.23998;stroke-linecap:round;stroke-linejoin:round;stroke-miterlimit:10;stroke-opacity:1;stroke-dasharray:none" /><text
       x="54.376999"
       y="-3.0116999"
       transform="scale(1,-1)"
       id="text132"><tspan
         x="54.376999 60.145 64.593002 69.041 71.256996 73.920998 78.376999 80.144997 81.913002 86.361"
         y="-3.0116999"
         id="tspan134"
         style="font-size:8px;font-variant:normal;font-weight:normal;writing-mode:lr-tb;fill:#000000;fill-opacity:1;fill-rule:nonzero;stroke:none;font-family:Times New Roman;-inkscape-font-specification:TimesNewRomanPSMT">Controller</tspan></text>
</g></svg>