<?xml version="1.0" encoding="UTF-8" standalone="no"?>
<!-- Created with Inkscape (http://www.inkscape.org/) -->

<svg
   xmlns:dc="http://purl.org/dc/elements/1.1/"
   xmlns:cc="http://creativecommons.org/ns#"
   xmlns:rdf="http://www.w3.org/1999/02/22-rdf-syntax-ns#"
   xmlns:svg="http://www.w3.org/2000/svg"
   xmlns="http://www.w3.org/2000/svg"
   xmlns:sodipodi="http://sodipodi.sourceforge.net/DTD/sodipodi-0.dtd"
   xmlns:inkscape="http://www.inkscape.org/namespaces/inkscape"
   id="svg2"
   version="1.1"
   inkscape:version="0.48.1 r9760"
   width="351.79965"
   height="168.79099"
   xml:space="preserve"
   sodipodi:docname="stagedhybrid.svg"><metadata
     id="metadata8"><rdf:RDF><cc:Work
         rdf:about=""><dc:format>image/svg+xml</dc:format><dc:type
           rdf:resource="http://purl.org/dc/dcmitype/StillImage" /><dc:title /></cc:Work></rdf:RDF></metadata><defs
     id="defs6" /><sodipodi:namedview
     pagecolor="#ffffff"
     bordercolor="#666666"
     borderopacity="1"
     objecttolerance="10"
     gridtolerance="10"
     guidetolerance="10"
     inkscape:pageopacity="0"
     inkscape:pageshadow="2"
     inkscape:window-width="1175"
     inkscape:window-height="672"
     id="namedview4"
     showgrid="false"
     inkscape:zoom="1.8676023"
     inkscape:cx="133.38362"
     inkscape:cy="93.065782"
     inkscape:window-x="0"
     inkscape:window-y="25"
     inkscape:window-maximized="0"
     inkscape:current-layer="g10"
     fit-margin-top="0"
     fit-margin-left="0"
     fit-margin-right="0"
     fit-margin-bottom="0" /><g
     id="g10"
     inkscape:groupmode="layer"
     inkscape:label="stagedhybrid"
     transform="matrix(1.25,0,0,-1.25,-0.21012784,129.21971)"><g
   id="g12"
   transform="matrix(1.3269591,0,0,1.3269591,-0.03923509,-33.801028)"><path
     d="m 1.3739,61.307 210.8661,0"
     style="fill:none;stroke:#000000;stroke-width:0.23998;stroke-linecap:round;stroke-linejoin:round;stroke-miterlimit:10;stroke-opacity:1;stroke-dasharray:1.6798, 1.1999;stroke-dashoffset:0"
     id="path14"
     inkscape:connector-curvature="0" /></g><text
   transform="scale(1,-1)"
   id="text16"
   x="5.7585144"
   y="-52.327904"
   style="font-size:15.92350864px"><tspan
     style="font-size:10.61556625px;font-variant:normal;font-weight:normal;writing-mode:lr-tb;fill:#000000;fill-opacity:1;fill-rule:nonzero;stroke:none;font-family:Times New Roman;-inkscape-font-specification:Times New"
     x="5.7585144 11.662378 15.197683 20.505659 25.813633 29.348936 34.060642 42.317871 50.5751 55.286808"
     y="-52.327904"
     sodipodi:role="line"
     id="tspan18">Programmer</tspan></text>

<text
   transform="scale(1,-1)"
   id="text20"
   x="9.8321457"
   y="-36.404396"
   style="font-size:15.92350864px"><tspan
     style="font-size:10.61556625px;font-variant:normal;font-weight:normal;writing-mode:lr-tb;fill:#000000;fill-opacity:1;fill-rule:nonzero;stroke:none;font-family:Times New Roman;-inkscape-font-specification:Times New"
     x="9.8321457 16.912502 22.220476 27.528452 30.477707 33.426964 41.684196"
     y="-36.404396"
     sodipodi:role="line"
     id="tspan22">Runtime</tspan></text>

<path
   d="m 77.518868,76.939014 42.620602,0 0,26.281746 -42.620602,0 0,-26.281746 z"
   style="fill:#ffffff;fill-opacity:1;fill-rule:evenodd;stroke:none"
   id="path24"
   inkscape:connector-curvature="0" /><path
   d="m 77.518868,76.939014 42.620602,0 0,26.281746 -42.620602,0 0,-26.281746 z"
   style="fill:none;stroke:#000000;stroke-width:0.31847018;stroke-linecap:round;stroke-linejoin:round;stroke-miterlimit:10;stroke-opacity:1;stroke-dasharray:none"
   id="path26"
   inkscape:connector-curvature="0" /><text
   transform="scale(1,-1)"
   id="text28"
   x="86.446648"
   y="-86.88192"
   style="font-size:15.92350864px"><tspan
     style="font-size:10.61556625px;font-variant:normal;font-weight:bold;writing-mode:lr-tb;fill:#000000;fill-opacity:1;fill-rule:nonzero;stroke:none;font-family:Times New Roman;-inkscape-font-specification:'Times New Roman, Bold'"
     x="86.446648 92.35051 95.885818 101.19379 106.50177"
     y="-86.88192"
     sodipodi:role="line"
     id="tspan30">Stage</tspan></text>

<text
   transform="scale(1,-1)"
   id="text32"
   x="167.64857"
   y="-88.231438"
   style="font-size:15.92350864px"><tspan
     style="font-size:7.96162701px;font-variant:normal;font-weight:normal;writing-mode:lr-tb;fill:#000000;fill-opacity:1;fill-rule:nonzero;stroke:none;font-family:Times New Roman;-inkscape-font-specification:Times New"
     x="167.64857 169.6389 171.62921"
     y="-88.231438"
     sodipodi:role="line"
     id="tspan34">...</tspan></text>

<path
   d="m 98.829831,76.939014 0,-19.097595"
   style="fill:none;stroke:#000000;stroke-width:0.31844363;stroke-linecap:round;stroke-linejoin:round;stroke-miterlimit:10;stroke-opacity:1;stroke-dasharray:none"
   id="path36"
   inkscape:connector-curvature="0" /><path
   d="m 78.966581,1.6579719 c -3.113046,-1.91214804 -3.884009,-4.7279552 -2.314217,-7.326141"
   style="fill:none;stroke:#000000;stroke-width:0.31844363;stroke-linecap:round;stroke-linejoin:round;stroke-miterlimit:10;stroke-opacity:1;stroke-dasharray:none"
   id="path38"
   inkscape:connector-curvature="0" /><path
   d="m 78.966581,-8.1256973 -4.680185,1.718412 c 1.503445,0.451166 2.70567,1.5830621 3.247069,3.0559867 l 0,0 1.433116,-4.7743987 z"
   style="fill:#000000;fill-opacity:1;fill-rule:evenodd;stroke:none"
   id="path40"
   inkscape:connector-curvature="0" /><path
   d="m 81.588652,-8.1973531 c 2.247869,2.0833257 2.822442,4.701416 1.417192,7.26112"
   style="fill:none;stroke:#000000;stroke-width:0.31844363;stroke-linecap:round;stroke-linejoin:round;stroke-miterlimit:10;stroke-opacity:1;stroke-dasharray:none"
   id="path42"
   inkscape:connector-curvature="0" /><path
   d="m 80.846882,1.6579719 4.566066,-1.99972734 C 83.885618,-0.70136135 82.615718,-1.7576208 81.98674,-3.1947174 l 0,0 -1.139858,4.8526893 z"
   style="fill:#000000;fill-opacity:1;fill-rule:evenodd;stroke:none"
   id="path44"
   inkscape:connector-curvature="0" /><path
   d="m 118.79393,1.6951267 c -3.10774,-1.90949407 -3.88136,-4.7173395 -2.35668,-7.3287949"
   style="fill:none;stroke:#000000;stroke-width:0.31844363;stroke-linecap:round;stroke-linejoin:round;stroke-miterlimit:10;stroke-opacity:1;stroke-dasharray:none"
   id="path46"
   inkscape:connector-curvature="0" /><path
   d="m 118.71299,-8.1256973 -4.65232,1.7900678 c 1.51008,0.4272808 2.72955,1.5419264 3.29351,3.0055622 l 1.35881,-4.79563 z"
   style="fill:#000000;fill-opacity:1;fill-rule:evenodd;stroke:none"
   id="path48"
   inkscape:connector-curvature="0" /><path
   d="m 120.61983,-8.0885425 c 2.83703,2.0289204 3.56553,4.6284333 2.2054,7.18282945"
   style="fill:none;stroke:#000000;stroke-width:0.31844363;stroke-linecap:round;stroke-linejoin:round;stroke-miterlimit:10;stroke-opacity:1;stroke-dasharray:none"
   id="path50"
   inkscape:connector-curvature="0" /><path
   d="m 120.67423,1.6951267 4.55943,-2.0156508 c -1.52865,-0.35297111 -2.80253,-1.4065766 -3.43682,-2.8410194 l -1.12261,4.8566702 z"
   style="fill:#000000;fill-opacity:1;fill-rule:evenodd;stroke:none"
   id="path52"
   inkscape:connector-curvature="0" /><path
   d="m 68.338966,1.6579719 61.710234,0 0,18.0585861 -61.710234,0 0,-18.0585861 z"
   style="fill:#ffffff;fill-opacity:1;fill-rule:evenodd;stroke:none"
   id="path54"
   inkscape:connector-curvature="0" /><path
   d="m 68.338966,1.6579719 61.710234,0 0,18.0585861 -61.710234,0 0,-18.0585861 z"
   style="fill:none;stroke:#000000;stroke-width:0.31847018;stroke-linecap:round;stroke-linejoin:round;stroke-miterlimit:10;stroke-opacity:1;stroke-dasharray:none"
   id="path56"
   inkscape:connector-curvature="0" /><text
   transform="scale(1,-1)"
   id="text58"
   x="77.970032"
   y="-7.5018997"
   style="font-size:15.92350864px"><tspan
     style="font-size:10.61556625px;font-variant:normal;font-weight:normal;writing-mode:lr-tb;fill:#000000;fill-opacity:1;fill-rule:nonzero;stroke:none;font-family:Times New Roman;-inkscape-font-specification:Times New"
     x="77.970032 83.873901 88.585602 93.893578 98.605278 103.91325 109.22122 112.17049 116.88219"
     y="-7.5018997"
     sodipodi:role="line"
     id="tspan60">Scheduler</tspan></text>

<path
   d="m 90.933098,21.724247 0,34.142657 c 4.93496,2.632686 10.857182,2.632686 15.793462,0 l 0,0 0,-34.142657 c -4.93628,-2.632687 -10.858502,-2.632687 -15.793462,0 z"
   style="fill:#ffffff;fill-opacity:1;fill-rule:evenodd;stroke:none"
   id="path62"
   inkscape:connector-curvature="0" /><path
   d="m 90.933098,21.724247 0,34.142657 c 4.93496,2.632686 10.857182,2.632686 15.793462,0 l 0,0 0,-34.142657 c -4.93628,-2.632687 -10.858502,-2.632687 -15.793462,0 z"
   style="fill:none;stroke:#000000;stroke-width:0.31847018;stroke-linecap:round;stroke-linejoin:round;stroke-miterlimit:10;stroke-opacity:1;stroke-dasharray:none"
   id="path64"
   inkscape:connector-curvature="0" /><path
   d="m 90.933098,55.866904 c 4.93496,-2.63136 10.857182,-2.63136 15.793462,0"
   style="fill:none;stroke:#000000;stroke-width:0.31847018;stroke-linecap:round;stroke-linejoin:round;stroke-miterlimit:10;stroke-opacity:1;stroke-dasharray:none"
   id="path66"
   inkscape:connector-curvature="0" /><path
   d="m 91.803583,33.839383 0,8.026776 c 4.539527,-1.528657 9.455907,-1.528657 13.995437,0 l 0,0 0,-8.026776 c -4.53953,-1.528657 -9.45591,-1.528657 -13.995437,0 z"
   style="fill:#000000;fill-opacity:1;fill-rule:evenodd;stroke:none"
   id="path68"
   inkscape:connector-curvature="0" /><path
   d="m 91.803583,33.839383 0,8.026776 c 4.539527,-1.528657 9.455907,-1.528657 13.995437,0 l 0,0 0,-8.026776 c -4.53953,-1.528657 -9.45591,-1.528657 -13.995437,0 z"
   style="fill:none;stroke:#000000;stroke-width:0.31847018;stroke-linecap:round;stroke-linejoin:round;stroke-miterlimit:10;stroke-opacity:1;stroke-dasharray:none"
   id="path70"
   inkscape:connector-curvature="0" /><path
   d="m 91.859315,23.652318 0,8.026776 c 4.540854,-1.528657 9.455915,-1.528657 13.996765,0 l 0,0 0,-8.026776 c -4.54085,-1.528656 -9.455911,-1.528656 -13.996765,0 z"
   style="fill:#000000;fill-opacity:1;fill-rule:evenodd;stroke:none"
   id="path72"
   inkscape:connector-curvature="0" /><path
   d="m 91.859315,23.652318 0,8.026776 c 4.540854,-1.528657 9.455915,-1.528657 13.996765,0 l 0,0 0,-8.026776 c -4.54085,-1.528656 -9.455911,-1.528656 -13.996765,0 z"
   style="fill:none;stroke:#000000;stroke-width:0.31847018;stroke-linecap:round;stroke-linejoin:round;stroke-miterlimit:10;stroke-opacity:1;stroke-dasharray:none"
   id="path74"
   inkscape:connector-curvature="0" /><path
   d="m 104.53443,-31.490129 30.7191,0 0,23.2921124 -30.7191,0 0,-23.2921124 z"
   style="fill:#ffffff;fill-opacity:1;fill-rule:evenodd;stroke:none"
   id="path76"
   inkscape:connector-curvature="0" /><path
   d="m 104.53443,-31.490129 30.7191,0 0,23.2921124 -30.7191,0 0,-23.2921124 z"
   style="fill:none;stroke:#000000;stroke-width:0.31847018;stroke-linecap:round;stroke-linejoin:round;stroke-miterlimit:10;stroke-opacity:1;stroke-dasharray:none"
   id="path78"
   inkscape:connector-curvature="0" /><text
   transform="scale(1,-1)"
   id="text80"
   x="107.51345"
   y="17.455547"
   style="font-size:15.92350864px"><tspan
     style="font-size:10.61556625px;font-variant:normal;font-weight:normal;writing-mode:lr-tb;fill:#000000;fill-opacity:1;fill-rule:nonzero;stroke:none;font-family:Times New Roman;-inkscape-font-specification:Times New"
     x="107.51345 113.99792 119.30589 124.01759 129.32556 132.27483"
     y="17.455547"
     sodipodi:role="line"
     id="tspan82">Event </tspan></text>

<text
   transform="scale(1,-1)"
   id="text84"
   x="110.45665"
   y="27.009916"
   style="font-size:15.92350864px"><tspan
     style="font-size:10.61556625px;font-variant:normal;font-weight:normal;writing-mode:lr-tb;fill:#000000;fill-opacity:1;fill-rule:nonzero;stroke:none;font-family:Times New Roman;-inkscape-font-specification:Times New"
     x="110.45665 113.40591 118.71387 124.02185"
     y="27.009916"
     sodipodi:role="line"
     id="tspan86">loop</tspan></text>

<path
   d="m 64.661962,-31.490129 30.719102,0 0,23.2921124 -30.719102,0 0,-23.2921124 z"
   style="fill:#ffffff;fill-opacity:1;fill-rule:evenodd;stroke:none"
   id="path88"
   inkscape:connector-curvature="0" /><path
   d="m 64.661962,-31.490129 30.719102,0 0,23.2921124 -30.719102,0 0,-23.2921124 z"
   style="fill:none;stroke:#000000;stroke-width:0.31847018;stroke-linecap:round;stroke-linejoin:round;stroke-miterlimit:10;stroke-opacity:1;stroke-dasharray:none"
   id="path90"
   inkscape:connector-curvature="0" /><text
   transform="scale(1,-1)"
   id="text92"
   x="67.640984"
   y="17.455547"
   style="font-size:15.92350864px"><tspan
     style="font-size:10.61556625px;font-variant:normal;font-weight:normal;writing-mode:lr-tb;fill:#000000;fill-opacity:1;fill-rule:nonzero;stroke:none;font-family:Times New Roman;-inkscape-font-specification:Times New"
     x="67.640984 74.12545 79.433426 84.145126 89.453102 92.402359"
     y="17.455547"
     sodipodi:role="line"
     id="tspan94">Event </tspan></text>

<text
   transform="scale(1,-1)"
   id="text96"
   x="70.58551"
   y="27.009916"
   style="font-size:15.92350864px"><tspan
     style="font-size:10.61556625px;font-variant:normal;font-weight:normal;writing-mode:lr-tb;fill:#000000;fill-opacity:1;fill-rule:nonzero;stroke:none;font-family:Times New Roman;-inkscape-font-specification:Times New"
     x="70.58551 73.534767 78.842735 84.150711"
     y="27.009916"
     sodipodi:role="line"
     id="tspan98">loop</tspan></text>

<text
   transform="scale(1,-1)"
   id="text100"
   x="96.972092"
   y="22.232599"
   style="font-size:15.92350864px"><tspan
     style="font-size:7.96162701px;font-variant:normal;font-weight:normal;writing-mode:lr-tb;fill:#000000;fill-opacity:1;fill-rule:nonzero;stroke:none;font-family:Times New Roman;-inkscape-font-specification:Times New"
     x="96.972092 98.962402 100.95271"
     y="22.232599"
     sodipodi:role="line"
     id="tspan102">...</tspan></text>

<g
   id="g104"
   transform="matrix(1.3269591,0,0,1.3269591,-0.03923509,-33.801028)"><path
     d="m 128.98,59.89 0,-58.1103"
     style="fill:none;stroke:#000000;stroke-width:0.23999999;stroke-linecap:round;stroke-linejoin:round;stroke-miterlimit:10;stroke-opacity:1;stroke-dasharray:1.68, 1.2;stroke-dashoffset:0"
     id="path106"
     inkscape:connector-curvature="0" /></g><path
   d="m 223.39413,1.7083963 c -3.11835,-1.912148 -3.88799,-4.7279551 -2.32218,-7.326141"
   style="fill:none;stroke:#000000;stroke-width:0.31844363;stroke-linecap:round;stroke-linejoin:round;stroke-miterlimit:10;stroke-opacity:1;stroke-dasharray:none"
   id="path108"
   inkscape:connector-curvature="0" /><path
   d="m 223.39413,-8.0752729 -4.68416,1.718412 c 1.49946,0.4511661 2.70699,1.5830622 3.25105,3.0559867 l 0,0 1.43311,-4.7743987 z"
   style="fill:#000000;fill-opacity:1;fill-rule:evenodd;stroke:none"
   id="path110"
   inkscape:connector-curvature="0" /><path
   d="m 226.00824,-8.1469287 c 2.25583,2.0846527 2.82642,4.701416 1.41985,7.26112004"
   style="fill:none;stroke:#000000;stroke-width:0.31844363;stroke-linecap:round;stroke-linejoin:round;stroke-miterlimit:10;stroke-opacity:1;stroke-dasharray:none"
   id="path112"
   inkscape:connector-curvature="0" /><path
   d="m 225.26514,1.7083963 4.57801,-1.9997273 c -1.53927,-0.3596059 -2.79988,-1.4158653 -3.43682,-2.852962 l 0,0 -1.14119,4.8526893 z"
   style="fill:#000000;fill-opacity:1;fill-rule:evenodd;stroke:none"
   id="path114"
   inkscape:connector-curvature="0" /><path
   d="m 263.21617,1.7455512 c -3.10508,-1.90816717 -3.87472,-4.7173395 -2.34871,-7.327468"
   style="fill:none;stroke:#000000;stroke-width:0.31844363;stroke-linecap:round;stroke-linejoin:round;stroke-miterlimit:10;stroke-opacity:1;stroke-dasharray:none"
   id="path116"
   inkscape:connector-curvature="0" /><path
   d="m 263.13656,-8.0752729 -4.65763,1.7900678 c 1.51273,0.4272808 2.73354,1.5419264 3.30413,3.0055623 l 0,0 1.3535,-4.7956301 z"
   style="fill:#000000;fill-opacity:1;fill-rule:evenodd;stroke:none"
   id="path118"
   inkscape:connector-curvature="0" /><path
   d="m 265.04738,-8.038118 c 2.83969,2.0289204 3.55625,4.6284332 2.20275,7.1828294"
   style="fill:none;stroke:#000000;stroke-width:0.31844363;stroke-linecap:round;stroke-linejoin:round;stroke-miterlimit:10;stroke-opacity:1;stroke-dasharray:none"
   id="path120"
   inkscape:connector-curvature="0" /><path
   d="m 265.10046,1.7455512 4.55147,-2.01565085 C 268.12592,-0.62307076 266.85204,-1.6753493 266.2151,-3.111119 l -1.11464,4.8566702 z"
   style="fill:#000000;fill-opacity:1;fill-rule:evenodd;stroke:none"
   id="path122"
   inkscape:connector-curvature="0" /><path
   d="m 212.76519,1.7083963 61.71023,0 0,18.0585857 -61.71023,0 0,-18.0585857 z"
   style="fill:#ffffff;fill-opacity:1;fill-rule:evenodd;stroke:none"
   id="path124"
   inkscape:connector-curvature="0" /><path
   d="m 212.76519,1.7083963 61.71023,0 0,18.0585857 -61.71023,0 0,-18.0585857 z"
   style="fill:none;stroke:#000000;stroke-width:0.31847018;stroke-linecap:round;stroke-linejoin:round;stroke-miterlimit:10;stroke-opacity:1;stroke-dasharray:none"
   id="path126"
   inkscape:connector-curvature="0" /><text
   transform="scale(1,-1)"
   id="text128"
   x="222.39891"
   y="-7.5523238"
   style="font-size:15.92350864px"><tspan
     style="font-size:10.61556625px;font-variant:normal;font-weight:normal;writing-mode:lr-tb;fill:#000000;fill-opacity:1;fill-rule:nonzero;stroke:none;font-family:Times New Roman;-inkscape-font-specification:Times New"
     x="222.39891 228.30278 233.01448 238.32245 243.03415 248.34213 253.6501 256.59937 261.31107"
     y="-7.5523238"
     sodipodi:role="line"
     id="tspan130">Scheduler</tspan></text>

<text
   transform="scale(1,-1)"
   id="text132"
   x="255.69232"
   y="-62.997982"
   style="font-size:15.92350864px"><tspan
     style="font-size:10.61556625px;font-variant:normal;font-weight:normal;writing-mode:lr-tb;fill:#000000;fill-opacity:1;fill-rule:nonzero;stroke:none;font-family:Times New Roman;-inkscape-font-specification:Times New"
     x="255.69232 262.17679 267.48477 272.19647 277.50443 280.4537"
     y="-62.997982"
     sodipodi:role="line"
     id="tspan134">Event </tspan></text>

<text
   transform="scale(1,-1)"
   id="text136"
   x="255.40039"
   y="-53.443878"
   style="font-size:15.92350864px"><tspan
     style="font-size:10.61556625px;font-variant:normal;font-weight:normal;writing-mode:lr-tb;fill:#000000;fill-opacity:1;fill-rule:nonzero;stroke:none;font-family:Times New Roman;-inkscape-font-specification:Times New"
     x="255.40039 260.70837 266.01633 270.72803 276.03601"
     y="-53.443878"
     sodipodi:role="line"
     id="tspan138">queue</tspan></text>

<path
   d="m 235.54908,21.774671 0,34.143984 c 4.93629,2.63136 10.85452,2.63136 15.79081,0 l 0,0 0,-34.143984 c -4.93629,-2.63136 -10.85452,-2.63136 -15.79081,0 z"
   style="fill:#ffffff;fill-opacity:1;fill-rule:evenodd;stroke:none"
   id="path140"
   inkscape:connector-curvature="0" /><path
   d="m 235.54908,21.774671 0,34.143984 c 4.93629,2.63136 10.85452,2.63136 15.79081,0 l 0,0 0,-34.143984 c -4.93629,-2.63136 -10.85452,-2.63136 -15.79081,0 z"
   style="fill:none;stroke:#000000;stroke-width:0.31847018;stroke-linecap:round;stroke-linejoin:round;stroke-miterlimit:10;stroke-opacity:1;stroke-dasharray:none"
   id="path142"
   inkscape:connector-curvature="0" /><path
   d="m 235.54908,55.918655 c 4.93629,-2.632687 10.85452,-2.632687 15.79081,0"
   style="fill:none;stroke:#000000;stroke-width:0.31847018;stroke-linecap:round;stroke-linejoin:round;stroke-miterlimit:10;stroke-opacity:1;stroke-dasharray:none"
   id="path144"
   inkscape:connector-curvature="0" /><path
   d="m 236.42487,33.891135 0,8.025448 c 4.5382,-1.528657 9.44795,-1.528657 13.99942,0 l 0,0 0,-8.025448 c -4.55147,-1.529984 -9.46122,-1.529984 -13.99942,0 z"
   style="fill:#000000;fill-opacity:1;fill-rule:evenodd;stroke:none"
   id="path146"
   inkscape:connector-curvature="0" /><path
   d="m 236.42487,33.891135 0,8.025448 c 4.5382,-1.528657 9.44795,-1.528657 13.99942,0 l 0,0 0,-8.025448 c -4.55147,-1.529984 -9.46122,-1.529984 -13.99942,0 z"
   style="fill:none;stroke:#000000;stroke-width:0.31847018;stroke-linecap:round;stroke-linejoin:round;stroke-miterlimit:10;stroke-opacity:1;stroke-dasharray:none"
   id="path148"
   inkscape:connector-curvature="0" /><path
   d="m 236.47795,23.70407 0,8.025448 c 4.5382,-1.528657 9.46122,-1.528657 13.99942,0 l 0,0 0,-8.025448 c -4.5382,-1.529984 -9.46122,-1.529984 -13.99942,0 z"
   style="fill:#000000;fill-opacity:1;fill-rule:evenodd;stroke:none"
   id="path150"
   inkscape:connector-curvature="0" /><path
   d="m 236.47795,23.70407 0,8.025448 c 4.5382,-1.528657 9.46122,-1.528657 13.99942,0 l 0,0 0,-8.025448 c -4.5382,-1.529984 -9.46122,-1.529984 -13.99942,0 z"
   style="fill:none;stroke:#000000;stroke-width:0.31847018;stroke-linecap:round;stroke-linejoin:round;stroke-miterlimit:10;stroke-opacity:1;stroke-dasharray:none"
   id="path152"
   inkscape:connector-curvature="0" /><path
   d="m 248.95136,-31.439439 30.71911,0 0,23.2921122 -30.71911,0 0,-23.2921122 z"
   style="fill:#ffffff;fill-opacity:1;fill-rule:evenodd;stroke:none"
   id="path154"
   inkscape:connector-curvature="0" /><path
   d="m 248.95136,-31.439439 30.71911,0 0,23.2921122 -30.71911,0 0,-23.2921122 z"
   style="fill:none;stroke:#000000;stroke-width:0.31847018;stroke-linecap:round;stroke-linejoin:round;stroke-miterlimit:10;stroke-opacity:1;stroke-dasharray:none"
   id="path156"
   inkscape:connector-curvature="0" /><text
   transform="scale(1,-1)"
   id="text158"
   x="251.93703"
   y="17.405123"
   style="font-size:15.92350864px"><tspan
     style="font-size:10.61556625px;font-variant:normal;font-weight:normal;writing-mode:lr-tb;fill:#000000;fill-opacity:1;fill-rule:nonzero;stroke:none;font-family:Times New Roman;-inkscape-font-specification:Times New"
     x="251.93703 258.42148 263.72946 268.44116 273.74915 276.69839"
     y="17.405123"
     sodipodi:role="line"
     id="tspan160">Event </tspan></text>

<text
   transform="scale(1,-1)"
   id="text162"
   x="254.88287"
   y="26.959227"
   style="font-size:15.92350864px"><tspan
     style="font-size:10.61556625px;font-variant:normal;font-weight:normal;writing-mode:lr-tb;fill:#000000;fill-opacity:1;fill-rule:nonzero;stroke:none;font-family:Times New Roman;-inkscape-font-specification:Times New"
     x="254.88287 257.83212 263.14011 268.44809"
     y="26.959227"
     sodipodi:role="line"
     id="tspan164">loop</tspan></text>

<path
   d="m 209.08951,-31.439439 30.71911,0 0,23.2921122 -30.71911,0 0,-23.2921122 z"
   style="fill:#ffffff;fill-opacity:1;fill-rule:evenodd;stroke:none"
   id="path166"
   inkscape:connector-curvature="0" /><path
   d="m 209.08951,-31.439439 30.71911,0 0,23.2921122 -30.71911,0 0,-23.2921122 z"
   style="fill:none;stroke:#000000;stroke-width:0.31847018;stroke-linecap:round;stroke-linejoin:round;stroke-miterlimit:10;stroke-opacity:1;stroke-dasharray:none"
   id="path168"
   inkscape:connector-curvature="0" /><text
   transform="scale(1,-1)"
   id="text170"
   x="212.0619"
   y="17.405123"
   style="font-size:15.92350864px"><tspan
     style="font-size:10.61556625px;font-variant:normal;font-weight:normal;writing-mode:lr-tb;fill:#000000;fill-opacity:1;fill-rule:nonzero;stroke:none;font-family:Times New Roman;-inkscape-font-specification:Times New"
     x="212.0619 218.54637 223.85434 228.56604 233.87402 236.82327"
     y="17.405123"
     sodipodi:role="line"
     id="tspan172">Event </tspan></text>

<text
   transform="scale(1,-1)"
   id="text174"
   x="215.00775"
   y="26.959227"
   style="font-size:15.92350864px"><tspan
     style="font-size:10.61556625px;font-variant:normal;font-weight:normal;writing-mode:lr-tb;fill:#000000;fill-opacity:1;fill-rule:nonzero;stroke:none;font-family:Times New Roman;-inkscape-font-specification:Times New"
     x="215.00775 217.957 223.26498 228.57295"
     y="26.959227"
     sodipodi:role="line"
     id="tspan176">loop</tspan></text>

<text
   transform="scale(1,-1)"
   id="text178"
   x="241.40097"
   y="22.18191"
   style="font-size:15.92350864px"><tspan
     style="font-size:7.96162701px;font-variant:normal;font-weight:normal;writing-mode:lr-tb;fill:#000000;fill-opacity:1;fill-rule:nonzero;stroke:none;font-family:Times New Roman;-inkscape-font-specification:Times New"
     x="241.40097 243.39128 245.38159"
     y="22.18191"
     sodipodi:role="line"
     id="tspan180">...</tspan></text>

<path
   d="m 222.13352,76.86205 42.6206,0 0,26.28175 -42.6206,0 0,-26.28175 z"
   style="fill:#ffffff;fill-opacity:1;fill-rule:evenodd;stroke:none"
   id="path182"
   inkscape:connector-curvature="0" /><path
   d="m 222.13352,76.86205 42.6206,0 0,26.28175 -42.6206,0 0,-26.28175 z"
   style="fill:none;stroke:#000000;stroke-width:0.31847018;stroke-linecap:round;stroke-linejoin:round;stroke-miterlimit:10;stroke-opacity:1;stroke-dasharray:none"
   id="path184"
   inkscape:connector-curvature="0" /><text
   transform="scale(1,-1)"
   id="text186"
   x="231.06395"
   y="-86.804955"
   style="font-size:15.92350864px"><tspan
     style="font-size:10.61556625px;font-variant:normal;font-weight:bold;writing-mode:lr-tb;fill:#000000;fill-opacity:1;fill-rule:nonzero;stroke:none;font-family:Times New Roman;-inkscape-font-specification:'Times New Roman, Bold'"
     x="231.06395 236.96782 240.50313 245.8111 251.11908"
     y="-86.804955"
     sodipodi:role="line"
     id="tspan188">Stage</tspan></text>

<path
   d="m 243.44448,76.86205 0,-18.970207"
   style="fill:none;stroke:#000000;stroke-width:0.31844363;stroke-linecap:round;stroke-linejoin:round;stroke-miterlimit:10;stroke-opacity:1;stroke-dasharray:none"
   id="path190"
   inkscape:connector-curvature="0" /><path
   d="M 98.829831,76.939014 243.44448,57.891843"
   style="fill:none;stroke:#000000;stroke-width:0.31844363;stroke-linecap:round;stroke-linejoin:round;stroke-miterlimit:10;stroke-opacity:1;stroke-dasharray:none"
   id="path192"
   inkscape:connector-curvature="0" /><path
   d="M 243.44448,76.86205 98.829831,57.841419"
   style="fill:none;stroke:#000000;stroke-width:0.31844363;stroke-linecap:round;stroke-linejoin:round;stroke-miterlimit:10;stroke-opacity:1;stroke-dasharray:none"
   id="path194"
   inkscape:connector-curvature="0" /><path
   d="M 64.661962,-19.844073 C 14.395426,-14.650355 6.7975234,35.468889 85.39437,37.241706"
   style="fill:none;stroke:#000000;stroke-width:0.31844363;stroke-linecap:round;stroke-linejoin:round;stroke-miterlimit:10;stroke-opacity:1;stroke-dasharray:none"
   id="path196"
   inkscape:connector-curvature="0" /><path
   d="M 84.457537,40.898805 91.803583,37.280188 84.5,33.573991 84.45754,40.898805 z"
   style="fill:#000000;fill-opacity:1;fill-rule:evenodd;stroke:none"
   id="path198"
   inkscape:connector-curvature="0" /><path
   d="m 12.315948,-1.3502443 36.109343,0 c 6.648065,0 12.036846,5.3901077 12.036846,12.0368453 0,6.648065 -5.388781,12.036846 -12.036846,12.036846 0,0 0,0 0,0 l 0,0 -36.109343,0 c -6.6476668,0 -12.03671291,-5.388781 -12.03671291,-12.036846 0,-6.6467376 5.38904611,-12.0368453 12.03671291,-12.0368453 z"
   style="fill:#ffffff;fill-opacity:1;fill-rule:evenodd;stroke:none"
   id="path200"
   inkscape:connector-curvature="0" /><g
   id="g202"
   transform="matrix(1.3269591,0,0,1.3269591,-0.03923509,-33.801028)"><path
     d="m 9.3109,24.455 27.2121,0 c 5.01,0 9.071,4.062 9.071,9.071 0,5.01 -4.061,9.071 -9.071,9.071 0,0 0,0 0,0 l 0,0 -27.2121,0 c -5.0097,0 -9.0709,-4.061 -9.0709,-9.071 0,-5.009 4.0612,-9.071 9.0709,-9.071 z"
     style="fill:none;stroke:#000000;stroke-width:0.23999999;stroke-linecap:round;stroke-linejoin:round;stroke-miterlimit:10;stroke-opacity:1;stroke-dasharray:1.68, 1.2;stroke-dashoffset:0"
     id="path204"
     inkscape:connector-curvature="0" /></g><text
   transform="scale(1,-1)"
   id="text206"
   x="10.90977"
   y="-13.075128"
   style="font-size:15.92350864px"><tspan
     style="font-size:10.61556625px;font-variant:normal;font-weight:normal;writing-mode:lr-tb;fill:#000000;fill-opacity:1;fill-rule:nonzero;stroke:none;font-family:Times New Roman;-inkscape-font-specification:Times New"
     x="10.90977 17.990126 20.939383 26.247356 30.959059 36.267033 39.216293 44.524265 49.832241"
     y="-13.075128"
     sodipodi:role="line"
     id="tspan208">Blocking </tspan></text>

<text
   transform="scale(1,-1)"
   id="text210"
   x="20.644075"
   y="-3.5210223"
   style="font-size:15.92350864px"><tspan
     style="font-size:10.61556625px;font-variant:normal;font-weight:normal;writing-mode:lr-tb;fill:#000000;fill-opacity:1;fill-rule:nonzero;stroke:none;font-family:Times New Roman;-inkscape-font-specification:Times New"
     x="20.644075 25.355778 30.06748 33.016739 35.965996"
     y="-3.5210223"
     sodipodi:role="line"
     id="tspan212">calls</tspan></text>

<text
   transform="scale(1,-1)"
   id="text214"
   x="14.662145"
   y="20.05904"
   style="font-size:15.92350864px"><tspan
     style="font-size:7.96162701px;font-variant:normal;font-weight:normal;writing-mode:lr-tb;fill:#000000;fill-opacity:1;fill-rule:nonzero;stroke:none;font-family:Times New Roman;-inkscape-font-specification:Times New"
     x="14.662145 19.525471 23.506475 26.15793 29.691708 33.225483 37.20649"
     y="20.05904"
     sodipodi:role="line"
     id="tspan216">Thread </tspan></text>

<text
   transform="scale(1,-1)"
   id="text218"
   x="8.469492"
   y="27.223824"
   style="font-size:15.92350864px"><tspan
     style="font-size:7.96162701px;font-variant:normal;font-weight:normal;writing-mode:lr-tb;fill:#000000;fill-opacity:1;fill-rule:nonzero;stroke:none;font-family:Times New Roman;-inkscape-font-specification:Times New"
     x="8.469492 12.003269 15.984273 19.082575 21.294445 23.9459 27.479677 31.013453 33.225323 35.437195 39.418201"
     y="27.223824"
     sodipodi:role="line"
     id="tspan220">abstraction</tspan></text>

<path
   d="m 141.78615,13.416156 c -3.03874,3.036083 -6.07747,3.621271 -9.28871,0.9992"
   style="fill:none;stroke:#000000;stroke-width:0.31844363;stroke-linecap:round;stroke-linejoin:round;stroke-miterlimit:10;stroke-opacity:1;stroke-dasharray:none"
   id="path222"
   inkscape:connector-curvature="0" /><path
   d="m 130.16066,11.979059 1.47823,4.76113 c 0.52681,-1.478233 1.72107,-2.620745 3.22053,-3.086507 l 0,0 -4.69876,-1.674623 z"
   style="fill:#000000;fill-opacity:1;fill-rule:evenodd;stroke:none"
   id="path224"
   inkscape:connector-curvature="0" /><path
   d="m 130.16066,9.2972752 c 3.13295,-2.5955319 6.06553,-3.2125679 8.94503,-1.6905458"
   style="fill:none;stroke:#000000;stroke-width:0.31844363;stroke-linecap:round;stroke-linejoin:round;stroke-miterlimit:10;stroke-opacity:1;stroke-dasharray:none"
   id="path226"
   inkscape:connector-curvature="0" /><path
   d="m 141.78615,9.6542272 -2.18948,-4.4771599 c -0.29193,1.5419265 -1.30042,2.854289 -2.707,3.5443077 l 0,0 4.89648,0.9328522 z"
   style="fill:#000000;fill-opacity:1;fill-rule:evenodd;stroke:none"
   id="path228"
   inkscape:connector-curvature="0" /><path
   d="m 212.83154,13.49312 c -3.03874,3.037409 -6.07747,3.622598 -9.30198,0.9992"
   style="fill:none;stroke:#000000;stroke-width:0.31844363;stroke-linecap:round;stroke-linejoin:round;stroke-miterlimit:10;stroke-opacity:1;stroke-dasharray:none"
   id="path230"
   inkscape:connector-curvature="0" /><path
   d="m 201.19411,12.05735 1.48619,4.759802 c 0.51752,-1.476905 1.71178,-2.620744 3.21124,-3.08518 l 0,0 -4.69743,-1.674622 z"
   style="fill:#000000;fill-opacity:1;fill-rule:evenodd;stroke:none"
   id="path232"
   inkscape:connector-curvature="0" /><path
   d="m 201.19411,9.3755658 c 3.13162,-2.5968589 6.0642,-3.2138949 8.9437,-1.6905458"
   style="fill:none;stroke:#000000;stroke-width:0.31844363;stroke-linecap:round;stroke-linejoin:round;stroke-miterlimit:10;stroke-opacity:1;stroke-dasharray:none"
   id="path234"
   inkscape:connector-curvature="0" /><path
   d="m 212.83154,9.7325178 -2.20275,-4.4771599 c -0.29193,1.5405995 -1.28715,2.854289 -2.707,3.5443077 l 0,0 4.90975,0.9328522 z"
   style="fill:#000000;fill-opacity:1;fill-rule:evenodd;stroke:none"
   id="path236"
   inkscape:connector-curvature="0" /><path
   d="m 141.01651,-13.608692 28.21115,0 0,38.309308 -28.21115,0 0,-38.309308 z"
   style="fill:#ffffff;fill-opacity:1;fill-rule:evenodd;stroke:none"
   id="path238"
   inkscape:connector-curvature="0" /><path
   d="m 141.01651,-13.608692 28.21115,0 0,38.309308 -28.21115,0 0,-38.309308 z"
   style="fill:none;stroke:#000000;stroke-width:0.31847018;stroke-linecap:round;stroke-linejoin:round;stroke-miterlimit:10;stroke-opacity:1;stroke-dasharray:none"
   id="path240"
   inkscape:connector-curvature="0" /><text
   transform="scale(1,-1)"
   id="text242"
   x="143.84294"
   y="1.6660606"
   style="font-size:15.92350864px"><tspan
     style="font-size:7.96162701px;font-variant:normal;font-weight:normal;writing-mode:lr-tb;fill:#000000;fill-opacity:1;fill-rule:nonzero;stroke:none;font-family:Times New Roman;-inkscape-font-specification:Times New"
     x="143.84294 148.70627 152.68727 155.33871 158.8725 162.40628 166.38728"
     y="1.6660606"
     sodipodi:role="line"
     id="tspan244">Thread </tspan></text>

<text
   transform="scale(1,-1)"
   id="text246"
   x="147.82381"
   y="11.221493"
   style="font-size:15.92350864px"><tspan
     style="font-size:7.96162701px;font-variant:normal;font-weight:normal;writing-mode:lr-tb;fill:#000000;fill-opacity:1;fill-rule:nonzero;stroke:none;font-family:Times New Roman;-inkscape-font-specification:Times New"
     x="147.82381 152.25166 156.23267 160.21367"
     y="11.221493"
     sodipodi:role="line"
     id="tspan248">Pool</tspan></text>

<path
   d="m 145.92626,22.818988 c -3.75529,-3.760602 -1.20753,-3.487248 0.22559,-4.027321 1.27388,-0.481686 1.65869,-1.614909 -0.22559,-3.49521"
   style="fill:none;stroke:#000000;stroke-width:0.95541054;stroke-linecap:round;stroke-linejoin:round;stroke-miterlimit:10;stroke-opacity:1;stroke-dasharray:none"
   id="path250"
   inkscape:connector-curvature="0" /><path
   d="m 145.92626,15.296457 c -3.75529,-3.760602 -1.20753,-3.488575 0.22559,-4.027321 1.27388,-0.481686 1.65869,-1.6149088 -0.22559,-3.4952098"
   style="fill:none;stroke:#000000;stroke-width:0.95541054;stroke-linecap:round;stroke-linejoin:round;stroke-miterlimit:10;stroke-opacity:1;stroke-dasharray:none"
   id="path252"
   inkscape:connector-curvature="0" /><path
   d="m 150.58389,22.818988 c -3.7553,-3.760602 -1.20753,-3.487248 0.21231,-4.027321 1.28715,-0.481686 1.67197,-1.614909 -0.21231,-3.49521"
   style="fill:none;stroke:#000000;stroke-width:0.95541054;stroke-linecap:round;stroke-linejoin:round;stroke-miterlimit:10;stroke-opacity:1;stroke-dasharray:none"
   id="path254"
   inkscape:connector-curvature="0" /><path
   d="m 150.58389,15.296457 c -3.7553,-3.760602 -1.20753,-3.488575 0.21231,-4.027321 1.28715,-0.481686 1.67197,-1.6149088 -0.21231,-3.4952098"
   style="fill:none;stroke:#000000;stroke-width:0.95541054;stroke-linecap:round;stroke-linejoin:round;stroke-miterlimit:10;stroke-opacity:1;stroke-dasharray:none"
   id="path256"
   inkscape:connector-curvature="0" /><path
   d="m 166.05623,22.818988 c -3.75529,-3.760602 -1.20753,-3.487248 0.22558,-4.027321 1.27389,-0.481686 1.6587,-1.614909 -0.22558,-3.49521"
   style="fill:none;stroke:#000000;stroke-width:0.95541054;stroke-linecap:round;stroke-linejoin:round;stroke-miterlimit:10;stroke-opacity:1;stroke-dasharray:none"
   id="path258"
   inkscape:connector-curvature="0" /><path
   d="m 166.05623,15.296457 c -3.75529,-3.760602 -1.20753,-3.488575 0.22558,-4.027321 1.27389,-0.481686 1.6587,-1.6149088 -0.22558,-3.4952098"
   style="fill:none;stroke:#000000;stroke-width:0.95541054;stroke-linecap:round;stroke-linejoin:round;stroke-miterlimit:10;stroke-opacity:1;stroke-dasharray:none"
   id="path260"
   inkscape:connector-curvature="0" /><path
   d="m 155.42729,22.818988 c -3.7553,-3.760602 -1.20753,-3.487248 0.22558,-4.027321 1.27388,-0.481686 1.6587,-1.614909 -0.22558,-3.49521"
   style="fill:none;stroke:#000000;stroke-width:0.95541054;stroke-linecap:round;stroke-linejoin:round;stroke-miterlimit:10;stroke-opacity:1;stroke-dasharray:none"
   id="path262"
   inkscape:connector-curvature="0" /><path
   d="m 155.42729,15.296457 c -3.7553,-3.760602 -1.20753,-3.488575 0.22558,-4.027321 1.27388,-0.481686 1.6587,-1.6149088 -0.22558,-3.4952098"
   style="fill:none;stroke:#000000;stroke-width:0.95541054;stroke-linecap:round;stroke-linejoin:round;stroke-miterlimit:10;stroke-opacity:1;stroke-dasharray:none"
   id="path264"
   inkscape:connector-curvature="0" /><text
   transform="scale(1,-1)"
   id="text266"
   x="157.48407"
   y="-12.90793"
   style="font-size:15.92350864px"><tspan
     style="font-size:7.96162701px;font-variant:normal;font-weight:normal;writing-mode:lr-tb;fill:#000000;fill-opacity:1;fill-rule:nonzero;stroke:none;font-family:Times New Roman;-inkscape-font-specification:Times New"
     x="157.48407 159.47438 161.46469"
     y="-12.90793"
     sodipodi:role="line"
     id="tspan268">...</tspan></text>

<path
   d="m 172.98296,-13.608692 27.84093,0 0,38.309308 -27.84093,0 0,-38.309308 z"
   style="fill:#ffffff;fill-opacity:1;fill-rule:evenodd;stroke:none"
   id="path270"
   inkscape:connector-curvature="0" /><path
   d="m 172.98296,-13.608692 27.84093,0 0,38.309308 -27.84093,0 0,-38.309308 z"
   style="fill:none;stroke:#000000;stroke-width:0.31847018;stroke-linecap:round;stroke-linejoin:round;stroke-miterlimit:10;stroke-opacity:1;stroke-dasharray:none"
   id="path272"
   inkscape:connector-curvature="0" /><text
   transform="scale(1,-1)"
   id="text274"
   x="175.63687"
   y="1.6660606"
   style="font-size:15.92350864px"><tspan
     style="font-size:7.96162701px;font-variant:normal;font-weight:normal;writing-mode:lr-tb;fill:#000000;fill-opacity:1;fill-rule:nonzero;stroke:none;font-family:Times New Roman;-inkscape-font-specification:Times New"
     x="175.63687 180.5002 184.4812 187.13266 190.66644 194.20021 198.18121"
     y="1.6660606"
     sodipodi:role="line"
     id="tspan276">Thread </tspan></text>

<text
   transform="scale(1,-1)"
   id="text278"
   x="179.60448"
   y="11.221493"
   style="font-size:15.92350864px"><tspan
     style="font-size:7.96162701px;font-variant:normal;font-weight:normal;writing-mode:lr-tb;fill:#000000;fill-opacity:1;fill-rule:nonzero;stroke:none;font-family:Times New Roman;-inkscape-font-specification:Times New"
     x="179.60448 184.03233 188.01334 191.99434"
     y="11.221493"
     sodipodi:role="line"
     id="tspan280">Pool</tspan></text>

<path
   d="m 176.75152,22.818988 c -3.76856,-3.760602 -1.20753,-3.487248 0.21231,-4.027321 1.28716,-0.481686 1.67197,-1.614909 -0.21231,-3.49521"
   style="fill:none;stroke:#000000;stroke-width:0.95541054;stroke-linecap:round;stroke-linejoin:round;stroke-miterlimit:10;stroke-opacity:1;stroke-dasharray:none"
   id="path282"
   inkscape:connector-curvature="0" /><path
   d="m 176.75152,15.296457 c -3.76856,-3.760602 -1.20753,-3.488575 0.21231,-4.027321 1.28716,-0.481686 1.67197,-1.6149088 -0.21231,-3.4952098"
   style="fill:none;stroke:#000000;stroke-width:0.95541054;stroke-linecap:round;stroke-linejoin:round;stroke-miterlimit:10;stroke-opacity:1;stroke-dasharray:none"
   id="path284"
   inkscape:connector-curvature="0" /><path
   d="m 181.40915,22.818988 c -3.76857,-3.760602 -1.2208,-3.487248 0.21231,-4.027321 1.28715,-0.481686 1.6587,-1.614909 -0.21231,-3.49521"
   style="fill:none;stroke:#000000;stroke-width:0.95541054;stroke-linecap:round;stroke-linejoin:round;stroke-miterlimit:10;stroke-opacity:1;stroke-dasharray:none"
   id="path286"
   inkscape:connector-curvature="0" /><path
   d="m 181.40915,15.296457 c -3.76857,-3.760602 -1.2208,-3.488575 0.21231,-4.027321 1.28715,-0.481686 1.6587,-1.6149088 -0.21231,-3.4952098"
   style="fill:none;stroke:#000000;stroke-width:0.95541054;stroke-linecap:round;stroke-linejoin:round;stroke-miterlimit:10;stroke-opacity:1;stroke-dasharray:none"
   id="path288"
   inkscape:connector-curvature="0" /><path
   d="m 196.88149,22.818988 c -3.75529,-3.760602 -1.20753,-3.487248 0.22558,-4.027321 1.27388,-0.481686 1.6587,-1.614909 -0.22558,-3.49521"
   style="fill:none;stroke:#000000;stroke-width:0.95541054;stroke-linecap:round;stroke-linejoin:round;stroke-miterlimit:10;stroke-opacity:1;stroke-dasharray:none"
   id="path290"
   inkscape:connector-curvature="0" /><path
   d="m 196.88149,15.296457 c -3.75529,-3.760602 -1.20753,-3.488575 0.22558,-4.027321 1.27388,-0.481686 1.6587,-1.6149088 -0.22558,-3.4952098"
   style="fill:none;stroke:#000000;stroke-width:0.95541054;stroke-linecap:round;stroke-linejoin:round;stroke-miterlimit:10;stroke-opacity:1;stroke-dasharray:none"
   id="path292"
   inkscape:connector-curvature="0" /><path
   d="m 186.25255,22.818988 c -3.7553,-3.760602 -1.20753,-3.487248 0.22558,-4.027321 1.27388,-0.481686 1.6587,-1.614909 -0.22558,-3.49521"
   style="fill:none;stroke:#000000;stroke-width:0.95541054;stroke-linecap:round;stroke-linejoin:round;stroke-miterlimit:10;stroke-opacity:1;stroke-dasharray:none"
   id="path294"
   inkscape:connector-curvature="0" /><path
   d="m 186.25255,15.296457 c -3.7553,-3.760602 -1.20753,-3.488575 0.22558,-4.027321 1.27388,-0.481686 1.6587,-1.6149088 -0.22558,-3.4952098"
   style="fill:none;stroke:#000000;stroke-width:0.95541054;stroke-linecap:round;stroke-linejoin:round;stroke-miterlimit:10;stroke-opacity:1;stroke-dasharray:none"
   id="path296"
   inkscape:connector-curvature="0" /><text
   transform="scale(1,-1)"
   id="text298"
   x="188.29607"
   y="-12.90793"
   style="font-size:15.92350864px"><tspan
     style="font-size:7.96162701px;font-variant:normal;font-weight:normal;writing-mode:lr-tb;fill:#000000;fill-opacity:1;fill-rule:nonzero;stroke:none;font-family:Times New Roman;-inkscape-font-specification:Times New"
     x="188.29607 190.28638 192.27669"
     y="-12.90793"
     sodipodi:role="line"
     id="tspan300">...</tspan></text>

</g></svg>