<?xml version="1.0" encoding="UTF-8" standalone="no"?>
<!-- Created with Inkscape (http://www.inkscape.org/) -->

<svg
   xmlns:dc="http://purl.org/dc/elements/1.1/"
   xmlns:cc="http://creativecommons.org/ns#"
   xmlns:rdf="http://www.w3.org/1999/02/22-rdf-syntax-ns#"
   xmlns:svg="http://www.w3.org/2000/svg"
   xmlns="http://www.w3.org/2000/svg"
   xmlns:sodipodi="http://sodipodi.sourceforge.net/DTD/sodipodi-0.dtd"
   xmlns:inkscape="http://www.inkscape.org/namespaces/inkscape"
   id="svg2"
   version="1.1"
   inkscape:version="0.48.1 r9760"
   width="267.1875"
   height="129.375"
   xml:space="preserve"
   sodipodi:docname="stagedhybrid.pdf"><metadata
     id="metadata8"><rdf:RDF><cc:Work
         rdf:about=""><dc:format>image/svg+xml</dc:format><dc:type
           rdf:resource="http://purl.org/dc/dcmitype/StillImage" /><dc:title></dc:title></cc:Work></rdf:RDF></metadata><defs
     id="defs6" /><sodipodi:namedview
     pagecolor="#ffffff"
     bordercolor="#666666"
     borderopacity="1"
     objecttolerance="10"
     gridtolerance="10"
     guidetolerance="10"
     inkscape:pageopacity="0"
     inkscape:pageshadow="2"
     inkscape:window-width="1175"
     inkscape:window-height="672"
     id="namedview4"
     showgrid="false"
     inkscape:zoom="1.8676023"
     inkscape:cx="133.59375"
     inkscape:cy="71.380574"
     inkscape:window-x="0"
     inkscape:window-y="25"
     inkscape:window-maximized="0"
     inkscape:current-layer="g10" /><g
     id="g10"
     inkscape:groupmode="layer"
     inkscape:label="stagedhybrid"
     transform="matrix(1.25,0,0,-1.25,0,129.375)"><g
       id="g12"><path
         d="m 1.3739,61.307 210.8661,0"
         style="fill:none;stroke:#000000;stroke-opacity:1;stroke-width:0.23998;stroke-linecap:round;stroke-linejoin:round;stroke-miterlimit:10;stroke-dasharray:1.6798,1.1999;stroke-dashoffset:0"
         id="path14" /></g><text
       transform="matrix(1,0,0,-1,4.3692,64.907)"
       id="text16"><tspan
         style="fill:#000000;fill-opacity:1;fill-rule:nonzero;stroke:none;font-family:Times New Roman;font-variant:normal;font-weight:normal;font-size:7.99992;writing-mode:lr;-inkscape-font-specification:Times New"
         x="0 4.449168 7.113384 11.113488 15.113592 17.777808 21.32856 27.551232 33.773904 37.324656"
         y="0"
         sodipodi:role="line"
         id="tspan18">Programmer</tspan></text>
<text
       transform="matrix(1,0,0,-1,7.4391,52.907)"
       id="text20"><tspan
         style="fill:#000000;fill-opacity:1;fill-rule:nonzero;stroke:none;font-family:Times New Roman;font-variant:normal;font-weight:normal;font-size:7.99992;writing-mode:lr;-inkscape-font-specification:Times New"
         x="0 5.335776 9.33588 13.335984 15.558552 17.78112 24.003792"
         y="0"
         sodipodi:role="line"
         id="tspan22">Runtime</tspan></text>
<path
       d="m 58.448,83.454 32.119,0 0,19.806 -32.119,0 0,-19.806 z"
       style="fill:#ffffff;fill-opacity:1;fill-rule:evenodd;stroke:none"
       id="path24" /><path
       d="m 58.448,83.454 32.119,0 0,19.806 -32.119,0 0,-19.806 z"
       style="fill:none;stroke:#000000;stroke-opacity:1;stroke-width:0.24;stroke-linecap:round;stroke-linejoin:round;stroke-miterlimit:10;stroke-dasharray:none"
       id="path26" /><text
       transform="matrix(1,0,0,-1,65.176,90.947)"
       id="text28"><tspan
         style="fill:#000000;fill-opacity:1;fill-rule:nonzero;stroke:none;font-family:Times New Roman;font-variant:normal;font-weight:bold;font-size:7.99992;writing-mode:lr;-inkscape-font-specification:'Times New Roman, Bold'"
         x="0 4.449168 7.113384 11.113488 15.113592"
         y="0"
         sodipodi:role="line"
         id="tspan30">Stage</tspan></text>
<text
       transform="matrix(1,0,0,-1,126.37,91.964)"
       id="text32"><tspan
         style="fill:#000000;fill-opacity:1;fill-rule:nonzero;stroke:none;font-family:Times New Roman;font-variant:normal;font-weight:normal;font-size:5.999904;writing-mode:lr;-inkscape-font-specification:Times New"
         x="0 1.499904 2.999808"
         y="0"
         sodipodi:role="line"
         id="tspan34">...</tspan></text>
<path
       d="m 74.508,83.454 0,-14.392"
       style="fill:none;stroke:#000000;stroke-opacity:1;stroke-width:0.23998;stroke-linecap:round;stroke-linejoin:round;stroke-miterlimit:10;stroke-dasharray:none"
       id="path36" /><path
       d="M 59.539,26.722 C 57.193,25.281 56.612,23.159 57.795,21.201"
       style="fill:none;stroke:#000000;stroke-opacity:1;stroke-width:0.23998;stroke-linecap:round;stroke-linejoin:round;stroke-miterlimit:10;stroke-dasharray:none"
       id="path38" /><path
       d="m 59.539,19.349 -3.527,1.295 c 1.133,0.34 2.039,1.193 2.447,2.303 l 0,0 1.08,-3.598 z"
       style="fill:#000000;fill-opacity:1;fill-rule:evenodd;stroke:none"
       id="path40" /><path
       d="m 61.515,19.295 c 1.694,1.57 2.127,3.543 1.068,5.472"
       style="fill:none;stroke:#000000;stroke-opacity:1;stroke-width:0.23998;stroke-linecap:round;stroke-linejoin:round;stroke-miterlimit:10;stroke-dasharray:none"
       id="path42" /><path
       d="m 60.956,26.722 3.441,-1.507 c -1.151,-0.271 -2.108,-1.067 -2.582,-2.15 l 0,0 -0.859,3.657 z"
       style="fill:#000000;fill-opacity:1;fill-rule:evenodd;stroke:none"
       id="path44" /><path
       d="M 89.553,26.75 C 87.211,25.311 86.628,23.195 87.777,21.227"
       style="fill:none;stroke:#000000;stroke-opacity:1;stroke-width:0.23998;stroke-linecap:round;stroke-linejoin:round;stroke-miterlimit:10;stroke-dasharray:none"
       id="path46" /><path
       d="m 89.492,19.349 -3.506,1.349 c 1.138,0.322 2.057,1.162 2.482,2.265 l 1.024,-3.614 z"
       style="fill:#000000;fill-opacity:1;fill-rule:evenodd;stroke:none"
       id="path48" /><path
       d="m 90.929,19.377 c 2.138,1.529 2.687,3.488 1.662,5.413"
       style="fill:none;stroke:#000000;stroke-opacity:1;stroke-width:0.23998;stroke-linecap:round;stroke-linejoin:round;stroke-miterlimit:10;stroke-dasharray:none"
       id="path50" /><path
       d="m 90.97,26.75 3.436,-1.519 c -1.152,-0.266 -2.112,-1.06 -2.59,-2.141 l -0.846,3.66 z"
       style="fill:#000000;fill-opacity:1;fill-rule:evenodd;stroke:none"
       id="path52" /><path
       d="m 51.53,26.722 46.505,0 0,13.609 -46.505,0 0,-13.609 z"
       style="fill:#ffffff;fill-opacity:1;fill-rule:evenodd;stroke:none"
       id="path54" /><path
       d="m 51.53,26.722 46.505,0 0,13.609 -46.505,0 0,-13.609 z"
       style="fill:none;stroke:#000000;stroke-opacity:1;stroke-width:0.24;stroke-linecap:round;stroke-linejoin:round;stroke-miterlimit:10;stroke-dasharray:none"
       id="path56" /><text
       transform="matrix(1,0,0,-1,58.788,31.126)"
       id="text58"><tspan
         style="fill:#000000;fill-opacity:1;fill-rule:nonzero;stroke:none;font-family:Times New Roman;font-variant:normal;font-weight:normal;font-size:7.99992;writing-mode:lr;-inkscape-font-specification:Times New"
         x="0 4.449168 7.99992 12.000024 15.550776 19.55088 23.550984 25.773552 29.324304"
         y="0"
         sodipodi:role="line"
         id="tspan60">Scheduler</tspan></text>
<path
       d="m 68.557,41.844 0,25.73 c 3.719,1.984 8.182,1.984 11.902,0 l 0,0 0,-25.73 c -3.72,-1.984 -8.183,-1.984 -11.902,0 z"
       style="fill:#ffffff;fill-opacity:1;fill-rule:evenodd;stroke:none"
       id="path62" /><path
       d="m 68.557,41.844 0,25.73 c 3.719,1.984 8.182,1.984 11.902,0 l 0,0 0,-25.73 c -3.72,-1.984 -8.183,-1.984 -11.902,0 z"
       style="fill:none;stroke:#000000;stroke-opacity:1;stroke-width:0.24;stroke-linecap:round;stroke-linejoin:round;stroke-miterlimit:10;stroke-dasharray:none"
       id="path64" /><path
       d="m 68.557,67.574 c 3.719,-1.983 8.182,-1.983 11.902,0"
       style="fill:none;stroke:#000000;stroke-opacity:1;stroke-width:0.24;stroke-linecap:round;stroke-linejoin:round;stroke-miterlimit:10;stroke-dasharray:none"
       id="path66" /><path
       d="m 69.213,50.974 0,6.049 c 3.421,-1.152 7.126,-1.152 10.547,0 l 0,0 0,-6.049 c -3.421,-1.152 -7.126,-1.152 -10.547,0 z"
       style="fill:#000000;fill-opacity:1;fill-rule:evenodd;stroke:none"
       id="path68" /><path
       d="m 69.213,50.974 0,6.049 c 3.421,-1.152 7.126,-1.152 10.547,0 l 0,0 0,-6.049 c -3.421,-1.152 -7.126,-1.152 -10.547,0 z"
       style="fill:none;stroke:#000000;stroke-opacity:1;stroke-width:0.24;stroke-linecap:round;stroke-linejoin:round;stroke-miterlimit:10;stroke-dasharray:none"
       id="path70" /><path
       d="m 69.255,43.297 0,6.049 c 3.422,-1.152 7.126,-1.152 10.548,0 l 0,0 0,-6.049 c -3.422,-1.152 -7.126,-1.152 -10.548,0 z"
       style="fill:#000000;fill-opacity:1;fill-rule:evenodd;stroke:none"
       id="path72" /><path
       d="m 69.255,43.297 0,6.049 c 3.422,-1.152 7.126,-1.152 10.548,0 l 0,0 0,-6.049 c -3.422,-1.152 -7.126,-1.152 -10.548,0 z"
       style="fill:none;stroke:#000000;stroke-opacity:1;stroke-width:0.24;stroke-linecap:round;stroke-linejoin:round;stroke-miterlimit:10;stroke-dasharray:none"
       id="path74" /><path
       d="m 78.807,1.7415 23.15,0 0,17.553 -23.15,0 0,-17.553 z"
       style="fill:#ffffff;fill-opacity:1;fill-rule:evenodd;stroke:none"
       id="path76" /><path
       d="m 78.807,1.7415 23.15,0 0,17.553 -23.15,0 0,-17.553 z"
       style="fill:none;stroke:#000000;stroke-opacity:1;stroke-width:0.24;stroke-linecap:round;stroke-linejoin:round;stroke-miterlimit:10;stroke-dasharray:none"
       id="path78" /><text
       transform="matrix(1,0,0,-1,81.052,12.318)"
       id="text80"><tspan
         style="fill:#000000;fill-opacity:1;fill-rule:nonzero;stroke:none;font-family:Times New Roman;font-variant:normal;font-weight:normal;font-size:7.99992;writing-mode:lr;-inkscape-font-specification:Times New"
         x="0 4.886712 8.886816 12.437568 16.437672 18.66024"
         y="0"
         sodipodi:role="line"
         id="tspan82">Event </tspan></text>
<text
       transform="matrix(1,0,0,-1,83.27,5.1178)"
       id="text84"><tspan
         style="fill:#000000;fill-opacity:1;fill-rule:nonzero;stroke:none;font-family:Times New Roman;font-variant:normal;font-weight:normal;font-size:7.99992;writing-mode:lr;-inkscape-font-specification:Times New"
         x="0 2.222568 6.222672 10.222776"
         y="0"
         sodipodi:role="line"
         id="tspan86">loop</tspan></text>
<path
       d="m 48.759,1.7415 23.15,0 0,17.553 -23.15,0 0,-17.553 z"
       style="fill:#ffffff;fill-opacity:1;fill-rule:evenodd;stroke:none"
       id="path88" /><path
       d="m 48.759,1.7415 23.15,0 0,17.553 -23.15,0 0,-17.553 z"
       style="fill:none;stroke:#000000;stroke-opacity:1;stroke-width:0.24;stroke-linecap:round;stroke-linejoin:round;stroke-miterlimit:10;stroke-dasharray:none"
       id="path90" /><text
       transform="matrix(1,0,0,-1,51.004,12.318)"
       id="text92"><tspan
         style="fill:#000000;fill-opacity:1;fill-rule:nonzero;stroke:none;font-family:Times New Roman;font-variant:normal;font-weight:normal;font-size:7.99992;writing-mode:lr;-inkscape-font-specification:Times New"
         x="0 4.886712 8.886816 12.437568 16.437672 18.66024"
         y="0"
         sodipodi:role="line"
         id="tspan94">Event </tspan></text>
<text
       transform="matrix(1,0,0,-1,53.223,5.1178)"
       id="text96"><tspan
         style="fill:#000000;fill-opacity:1;fill-rule:nonzero;stroke:none;font-family:Times New Roman;font-variant:normal;font-weight:normal;font-size:7.99992;writing-mode:lr;-inkscape-font-specification:Times New"
         x="0 2.222568 6.222672 10.222776"
         y="0"
         sodipodi:role="line"
         id="tspan98">loop</tspan></text>
<text
       transform="matrix(1,0,0,-1,73.108,8.718)"
       id="text100"><tspan
         style="fill:#000000;fill-opacity:1;fill-rule:nonzero;stroke:none;font-family:Times New Roman;font-variant:normal;font-weight:normal;font-size:5.999904;writing-mode:lr;-inkscape-font-specification:Times New"
         x="0 1.499904 2.999808"
         y="0"
         sodipodi:role="line"
         id="tspan102">...</tspan></text>
<g
       id="g104"><path
         d="m 128.98,59.89 0,-58.1103"
         style="fill:none;stroke:#000000;stroke-opacity:1;stroke-width:0.24;stroke-linecap:round;stroke-linejoin:round;stroke-miterlimit:10;stroke-dasharray:1.68,1.2;stroke-dashoffset:0"
         id="path106" /></g><path
       d="m 168.38,26.76 c -2.35,-1.441 -2.93,-3.563 -1.75,-5.521"
       style="fill:none;stroke:#000000;stroke-opacity:1;stroke-width:0.23998;stroke-linecap:round;stroke-linejoin:round;stroke-miterlimit:10;stroke-dasharray:none"
       id="path108" /><path
       d="m 168.38,19.387 -3.53,1.295 c 1.13,0.34 2.04,1.193 2.45,2.303 l 0,0 1.08,-3.598 z"
       style="fill:#000000;fill-opacity:1;fill-rule:evenodd;stroke:none"
       id="path110" /><path
       d="m 170.35,19.333 c 1.7,1.571 2.13,3.543 1.07,5.472"
       style="fill:none;stroke:#000000;stroke-opacity:1;stroke-width:0.23998;stroke-linecap:round;stroke-linejoin:round;stroke-miterlimit:10;stroke-dasharray:none"
       id="path112" /><path
       d="m 169.79,26.76 3.45,-1.507 c -1.16,-0.271 -2.11,-1.067 -2.59,-2.15 l 0,0 -0.86,3.657 z"
       style="fill:#000000;fill-opacity:1;fill-rule:evenodd;stroke:none"
       id="path114" /><path
       d="m 198.39,26.788 c -2.34,-1.438 -2.92,-3.555 -1.77,-5.522"
       style="fill:none;stroke:#000000;stroke-opacity:1;stroke-width:0.23998;stroke-linecap:round;stroke-linejoin:round;stroke-miterlimit:10;stroke-dasharray:none"
       id="path116" /><path
       d="m 198.33,19.387 -3.51,1.349 c 1.14,0.322 2.06,1.162 2.49,2.265 l 0,0 1.02,-3.614 z"
       style="fill:#000000;fill-opacity:1;fill-rule:evenodd;stroke:none"
       id="path118" /><path
       d="m 199.77,19.415 c 2.14,1.529 2.68,3.488 1.66,5.413"
       style="fill:none;stroke:#000000;stroke-opacity:1;stroke-width:0.23998;stroke-linecap:round;stroke-linejoin:round;stroke-miterlimit:10;stroke-dasharray:none"
       id="path120" /><path
       d="m 199.81,26.788 3.43,-1.519 c -1.15,-0.266 -2.11,-1.059 -2.59,-2.141 l -0.84,3.66 z"
       style="fill:#000000;fill-opacity:1;fill-rule:evenodd;stroke:none"
       id="path122" /><path
       d="m 160.37,26.76 46.505,0 0,13.609 -46.505,0 0,-13.609 z"
       style="fill:#ffffff;fill-opacity:1;fill-rule:evenodd;stroke:none"
       id="path124" /><path
       d="m 160.37,26.76 46.505,0 0,13.609 -46.505,0 0,-13.609 z"
       style="fill:none;stroke:#000000;stroke-opacity:1;stroke-width:0.24;stroke-linecap:round;stroke-linejoin:round;stroke-miterlimit:10;stroke-dasharray:none"
       id="path126" /><text
       transform="matrix(1,0,0,-1,167.63,31.164)"
       id="text128"><tspan
         style="fill:#000000;fill-opacity:1;fill-rule:nonzero;stroke:none;font-family:Times New Roman;font-variant:normal;font-weight:normal;font-size:7.99992;writing-mode:lr;-inkscape-font-specification:Times New"
         x="0 4.449168 7.99992 12.000024 15.550776 19.55088 23.550984 25.773552 29.324304"
         y="0"
         sodipodi:role="line"
         id="tspan130">Scheduler</tspan></text>
<text
       transform="matrix(1,0,0,-1,192.72,72.948)"
       id="text132"><tspan
         style="fill:#000000;fill-opacity:1;fill-rule:nonzero;stroke:none;font-family:Times New Roman;font-variant:normal;font-weight:normal;font-size:7.99992;writing-mode:lr;-inkscape-font-specification:Times New"
         x="0 4.886712 8.886816 12.437568 16.437672 18.66024"
         y="0"
         sodipodi:role="line"
         id="tspan134">Event </tspan></text>
<text
       transform="matrix(1,0,0,-1,192.5,65.748)"
       id="text136"><tspan
         style="fill:#000000;fill-opacity:1;fill-rule:nonzero;stroke:none;font-family:Times New Roman;font-variant:normal;font-weight:normal;font-size:7.99992;writing-mode:lr;-inkscape-font-specification:Times New"
         x="0 4.000104 8.000208 11.55096 15.551064"
         y="0"
         sodipodi:role="line"
         id="tspan138">queue</tspan></text>
<path
       d="m 177.54,41.882 0,25.731 c 3.72,1.983 8.18,1.983 11.9,0 l 0,0 0,-25.731 c -3.72,-1.983 -8.18,-1.983 -11.9,0 z"
       style="fill:#ffffff;fill-opacity:1;fill-rule:evenodd;stroke:none"
       id="path140" /><path
       d="m 177.54,41.882 0,25.731 c 3.72,1.983 8.18,1.983 11.9,0 l 0,0 0,-25.731 c -3.72,-1.983 -8.18,-1.983 -11.9,0 z"
       style="fill:none;stroke:#000000;stroke-opacity:1;stroke-width:0.24;stroke-linecap:round;stroke-linejoin:round;stroke-miterlimit:10;stroke-dasharray:none"
       id="path142" /><path
       d="m 177.54,67.613 c 3.72,-1.984 8.18,-1.984 11.9,0"
       style="fill:none;stroke:#000000;stroke-opacity:1;stroke-width:0.24;stroke-linecap:round;stroke-linejoin:round;stroke-miterlimit:10;stroke-dasharray:none"
       id="path144" /><path
       d="m 178.2,51.013 0,6.048 c 3.42,-1.152 7.12,-1.152 10.55,0 l 0,0 0,-6.048 c -3.43,-1.153 -7.13,-1.153 -10.55,0 z"
       style="fill:#000000;fill-opacity:1;fill-rule:evenodd;stroke:none"
       id="path146" /><path
       d="m 178.2,51.013 0,6.048 c 3.42,-1.152 7.12,-1.152 10.55,0 l 0,0 0,-6.048 c -3.43,-1.153 -7.13,-1.153 -10.55,0 z"
       style="fill:none;stroke:#000000;stroke-opacity:1;stroke-width:0.24;stroke-linecap:round;stroke-linejoin:round;stroke-miterlimit:10;stroke-dasharray:none"
       id="path148" /><path
       d="m 178.24,43.336 0,6.048 c 3.42,-1.152 7.13,-1.152 10.55,0 l 0,0 0,-6.048 c -3.42,-1.153 -7.13,-1.153 -10.55,0 z"
       style="fill:#000000;fill-opacity:1;fill-rule:evenodd;stroke:none"
       id="path150" /><path
       d="m 178.24,43.336 0,6.048 c 3.42,-1.152 7.13,-1.152 10.55,0 l 0,0 0,-6.048 c -3.42,-1.153 -7.13,-1.153 -10.55,0 z"
       style="fill:none;stroke:#000000;stroke-opacity:1;stroke-width:0.24;stroke-linecap:round;stroke-linejoin:round;stroke-miterlimit:10;stroke-dasharray:none"
       id="path152" /><path
       d="m 187.64,1.7797 23.15,0 0,17.553 -23.15,0 0,-17.553 z"
       style="fill:#ffffff;fill-opacity:1;fill-rule:evenodd;stroke:none"
       id="path154" /><path
       d="m 187.64,1.7797 23.15,0 0,17.553 -23.15,0 0,-17.553 z"
       style="fill:none;stroke:#000000;stroke-opacity:1;stroke-width:0.24;stroke-linecap:round;stroke-linejoin:round;stroke-miterlimit:10;stroke-dasharray:none"
       id="path156" /><text
       transform="matrix(1,0,0,-1,189.89,12.356)"
       id="text158"><tspan
         style="fill:#000000;fill-opacity:1;fill-rule:nonzero;stroke:none;font-family:Times New Roman;font-variant:normal;font-weight:normal;font-size:7.99992;writing-mode:lr;-inkscape-font-specification:Times New"
         x="0 4.886712 8.886816 12.437568 16.437672 18.66024"
         y="0"
         sodipodi:role="line"
         id="tspan160">Event </tspan></text>
<text
       transform="matrix(1,0,0,-1,192.11,5.156)"
       id="text162"><tspan
         style="fill:#000000;fill-opacity:1;fill-rule:nonzero;stroke:none;font-family:Times New Roman;font-variant:normal;font-weight:normal;font-size:7.99992;writing-mode:lr;-inkscape-font-specification:Times New"
         x="0 2.222568 6.222672 10.222776"
         y="0"
         sodipodi:role="line"
         id="tspan164">loop</tspan></text>
<path
       d="m 157.6,1.7797 23.15,0 0,17.553 -23.15,0 0,-17.553 z"
       style="fill:#ffffff;fill-opacity:1;fill-rule:evenodd;stroke:none"
       id="path166" /><path
       d="m 157.6,1.7797 23.15,0 0,17.553 -23.15,0 0,-17.553 z"
       style="fill:none;stroke:#000000;stroke-opacity:1;stroke-width:0.24;stroke-linecap:round;stroke-linejoin:round;stroke-miterlimit:10;stroke-dasharray:none"
       id="path168" /><text
       transform="matrix(1,0,0,-1,159.84,12.356)"
       id="text170"><tspan
         style="fill:#000000;fill-opacity:1;fill-rule:nonzero;stroke:none;font-family:Times New Roman;font-variant:normal;font-weight:normal;font-size:7.99992;writing-mode:lr;-inkscape-font-specification:Times New"
         x="0 4.886712 8.886816 12.437568 16.437672 18.66024"
         y="0"
         sodipodi:role="line"
         id="tspan172">Event </tspan></text>
<text
       transform="matrix(1,0,0,-1,162.06,5.156)"
       id="text174"><tspan
         style="fill:#000000;fill-opacity:1;fill-rule:nonzero;stroke:none;font-family:Times New Roman;font-variant:normal;font-weight:normal;font-size:7.99992;writing-mode:lr;-inkscape-font-specification:Times New"
         x="0 2.222568 6.222672 10.222776"
         y="0"
         sodipodi:role="line"
         id="tspan176">loop</tspan></text>
<text
       transform="matrix(1,0,0,-1,181.95,8.7562)"
       id="text178"><tspan
         style="fill:#000000;fill-opacity:1;fill-rule:nonzero;stroke:none;font-family:Times New Roman;font-variant:normal;font-weight:normal;font-size:5.999904;writing-mode:lr;-inkscape-font-specification:Times New"
         x="0 1.499904 2.999808"
         y="0"
         sodipodi:role="line"
         id="tspan180">...</tspan></text>
<path
       d="m 167.43,83.396 32.119,0 0,19.806 -32.119,0 0,-19.806 z"
       style="fill:#ffffff;fill-opacity:1;fill-rule:evenodd;stroke:none"
       id="path182" /><path
       d="m 167.43,83.396 32.119,0 0,19.806 -32.119,0 0,-19.806 z"
       style="fill:none;stroke:#000000;stroke-opacity:1;stroke-width:0.24;stroke-linecap:round;stroke-linejoin:round;stroke-miterlimit:10;stroke-dasharray:none"
       id="path184" /><text
       transform="matrix(1,0,0,-1,174.16,90.889)"
       id="text186"><tspan
         style="fill:#000000;fill-opacity:1;fill-rule:nonzero;stroke:none;font-family:Times New Roman;font-variant:normal;font-weight:bold;font-size:7.99992;writing-mode:lr;-inkscape-font-specification:'Times New Roman, Bold'"
         x="0 4.449168 7.113384 11.113488 15.113592"
         y="0"
         sodipodi:role="line"
         id="tspan188">Stage</tspan></text>
<path
       d="m 183.49,83.396 0,-14.296"
       style="fill:none;stroke:#000000;stroke-opacity:1;stroke-width:0.23998;stroke-linecap:round;stroke-linejoin:round;stroke-miterlimit:10;stroke-dasharray:none"
       id="path190" /><path
       d="M 74.508,83.454 183.49,69.1"
       style="fill:none;stroke:#000000;stroke-opacity:1;stroke-width:0.23998;stroke-linecap:round;stroke-linejoin:round;stroke-miterlimit:10;stroke-dasharray:none"
       id="path192" /><path
       d="M 183.49,83.396 74.508,69.062"
       style="fill:none;stroke:#000000;stroke-opacity:1;stroke-width:0.23998;stroke-linecap:round;stroke-linejoin:round;stroke-miterlimit:10;stroke-dasharray:none"
       id="path194" /><path
       d="M 48.759,10.518 C 10.878,14.432 5.1522,52.202 64.383,53.538"
       style="fill:none;stroke:#000000;stroke-opacity:1;stroke-width:0.23998;stroke-linecap:round;stroke-linejoin:round;stroke-miterlimit:10;stroke-dasharray:none"
       id="path196" /><path
       d="m 63.677,56.294 5.536,-2.727 -5.504,-2.793 -0.032,5.52 z"
       style="fill:#000000;fill-opacity:1;fill-rule:evenodd;stroke:none"
       id="path198" /><path
       d="m 9.3109,24.455 27.2121,0 c 5.01,0 9.071,4.062 9.071,9.071 0,5.01 -4.061,9.071 -9.071,9.071 0,0 0,0 0,0 l 0,0 -27.2121,0 c -5.0097,0 -9.0709,-4.061 -9.0709,-9.071 0,-5.009 4.0612,-9.071 9.0709,-9.071 z"
       style="fill:#ffffff;fill-opacity:1;fill-rule:evenodd;stroke:none"
       id="path200" /><g
       id="g202"><path
         d="m 9.3109,24.455 27.2121,0 c 5.01,0 9.071,4.062 9.071,9.071 0,5.01 -4.061,9.071 -9.071,9.071 0,0 0,0 0,0 l 0,0 -27.2121,0 c -5.0097,0 -9.0709,-4.061 -9.0709,-9.071 0,-5.009 4.0612,-9.071 9.0709,-9.071 z"
         style="fill:none;stroke:#000000;stroke-opacity:1;stroke-width:0.24;stroke-linecap:round;stroke-linejoin:round;stroke-miterlimit:10;stroke-dasharray:1.68,1.2;stroke-dashoffset:0"
         id="path204" /></g><text
       transform="matrix(1,0,0,-1,8.2512,35.326)"
       id="text206"><tspan
         style="fill:#000000;fill-opacity:1;fill-rule:nonzero;stroke:none;font-family:Times New Roman;font-variant:normal;font-weight:normal;font-size:7.99992;writing-mode:lr;-inkscape-font-specification:Times New"
         x="0 5.335776 7.558344 11.558448 15.1092 19.109304 21.331872 25.331976 29.33208"
         y="0"
         sodipodi:role="line"
         id="tspan208">Blocking </tspan></text>
<text
       transform="matrix(1,0,0,-1,15.587,28.126)"
       id="text210"><tspan
         style="fill:#000000;fill-opacity:1;fill-rule:nonzero;stroke:none;font-family:Times New Roman;font-variant:normal;font-weight:normal;font-size:7.99992;writing-mode:lr;-inkscape-font-specification:Times New"
         x="0 3.550752 7.101504 9.324072 11.54664"
         y="0"
         sodipodi:role="line"
         id="tspan212">calls</tspan></text>
<text
       transform="matrix(1,0,0,-1,11.079,10.356)"
       id="text214"><tspan
         style="fill:#000000;fill-opacity:1;fill-rule:nonzero;stroke:none;font-family:Times New Roman;font-variant:normal;font-weight:normal;font-size:5.999904;writing-mode:lr;-inkscape-font-specification:Times New"
         x="0 3.665016 6.665112 8.663256 11.32632 13.989384 16.98948"
         y="0"
         sodipodi:role="line"
         id="tspan216">Thread </tspan></text>
<text
       transform="matrix(1,0,0,-1,6.4122,4.9566)"
       id="text218"><tspan
         style="fill:#000000;fill-opacity:1;fill-rule:nonzero;stroke:none;font-family:Times New Roman;font-variant:normal;font-weight:normal;font-size:5.999904;writing-mode:lr;-inkscape-font-specification:Times New"
         x="0 2.663064 5.66316 7.998048 9.66492 11.663064 14.326128 16.989192 18.656064 20.322936 23.323032"
         y="0"
         sodipodi:role="line"
         id="tspan220">abstraction</tspan></text>
<path
       d="m 106.88,35.583 c -2.29,2.288 -4.58,2.729 -7,0.753"
       style="fill:none;stroke:#000000;stroke-opacity:1;stroke-width:0.23998;stroke-linecap:round;stroke-linejoin:round;stroke-miterlimit:10;stroke-dasharray:none"
       id="path222" /><path
       d="m 98.119,34.5 1.114,3.588 c 0.397,-1.114 1.297,-1.975 2.427,-2.326 l 0,0 -3.541,-1.262 z"
       style="fill:#000000;fill-opacity:1;fill-rule:evenodd;stroke:none"
       id="path224" /><path
       d="m 98.119,32.479 c 2.361,-1.956 4.571,-2.421 6.741,-1.274"
       style="fill:none;stroke:#000000;stroke-opacity:1;stroke-width:0.23998;stroke-linecap:round;stroke-linejoin:round;stroke-miterlimit:10;stroke-dasharray:none"
       id="path226" /><path
       d="m 106.88,32.748 -1.65,-3.374 c -0.22,1.162 -0.98,2.151 -2.04,2.671 l 0,0 3.69,0.703 z"
       style="fill:#000000;fill-opacity:1;fill-rule:evenodd;stroke:none"
       id="path228" /><path
       d="m 160.42,35.641 c -2.29,2.289 -4.58,2.73 -7.01,0.753"
       style="fill:none;stroke:#000000;stroke-opacity:1;stroke-width:0.23998;stroke-linecap:round;stroke-linejoin:round;stroke-miterlimit:10;stroke-dasharray:none"
       id="path230" /><path
       d="m 151.65,34.559 1.12,3.587 c 0.39,-1.113 1.29,-1.975 2.42,-2.325 l 0,0 -3.54,-1.262 z"
       style="fill:#000000;fill-opacity:1;fill-rule:evenodd;stroke:none"
       id="path232" /><path
       d="m 151.65,32.538 c 2.36,-1.957 4.57,-2.422 6.74,-1.274"
       style="fill:none;stroke:#000000;stroke-opacity:1;stroke-width:0.23998;stroke-linecap:round;stroke-linejoin:round;stroke-miterlimit:10;stroke-dasharray:none"
       id="path234" /><path
       d="m 160.42,32.807 -1.66,-3.374 c -0.22,1.161 -0.97,2.151 -2.04,2.671 l 0,0 3.7,0.703 z"
       style="fill:#000000;fill-opacity:1;fill-rule:evenodd;stroke:none"
       id="path236" /><path
       d="m 106.3,15.217 21.26,0 0,28.87 -21.26,0 0,-28.87 z"
       style="fill:#ffffff;fill-opacity:1;fill-rule:evenodd;stroke:none"
       id="path238" /><path
       d="m 106.3,15.217 21.26,0 0,28.87 -21.26,0 0,-28.87 z"
       style="fill:none;stroke:#000000;stroke-opacity:1;stroke-width:0.24;stroke-linecap:round;stroke-linejoin:round;stroke-miterlimit:10;stroke-dasharray:none"
       id="path240" /><text
       transform="matrix(1,0,0,-1,108.43,24.217)"
       id="text242"><tspan
         style="fill:#000000;fill-opacity:1;fill-rule:nonzero;stroke:none;font-family:Times New Roman;font-variant:normal;font-weight:normal;font-size:5.999904;writing-mode:lr;-inkscape-font-specification:Times New"
         x="0 3.665016 6.665112 8.663256 11.32632 13.989384 16.98948"
         y="0"
         sodipodi:role="line"
         id="tspan244">Thread </tspan></text>
<text
       transform="matrix(1,0,0,-1,111.43,17.016)"
       id="text246"><tspan
         style="fill:#000000;fill-opacity:1;fill-rule:nonzero;stroke:none;font-family:Times New Roman;font-variant:normal;font-weight:normal;font-size:5.999904;writing-mode:lr;-inkscape-font-specification:Times New"
         x="0 3.33684 6.336936 9.337032"
         y="0"
         sodipodi:role="line"
         id="tspan248">Pool</tspan></text>
<path
       d="m 110,42.669 c -2.83,-2.834 -0.91,-2.628 0.17,-3.035 0.96,-0.363 1.25,-1.217 -0.17,-2.634"
       style="fill:none;stroke:#000000;stroke-opacity:1;stroke-width:0.72;stroke-linecap:round;stroke-linejoin:round;stroke-miterlimit:10;stroke-dasharray:none"
       id="path250" /><path
       d="m 110,37 c -2.83,-2.834 -0.91,-2.629 0.17,-3.035 0.96,-0.363 1.25,-1.217 -0.17,-2.634"
       style="fill:none;stroke:#000000;stroke-opacity:1;stroke-width:0.72;stroke-linecap:round;stroke-linejoin:round;stroke-miterlimit:10;stroke-dasharray:none"
       id="path252" /><path
       d="m 113.51,42.669 c -2.83,-2.834 -0.91,-2.628 0.16,-3.035 0.97,-0.363 1.26,-1.217 -0.16,-2.634"
       style="fill:none;stroke:#000000;stroke-opacity:1;stroke-width:0.72;stroke-linecap:round;stroke-linejoin:round;stroke-miterlimit:10;stroke-dasharray:none"
       id="path254" /><path
       d="m 113.51,37 c -2.83,-2.834 -0.91,-2.629 0.16,-3.035 0.97,-0.363 1.26,-1.217 -0.16,-2.634"
       style="fill:none;stroke:#000000;stroke-opacity:1;stroke-width:0.72;stroke-linecap:round;stroke-linejoin:round;stroke-miterlimit:10;stroke-dasharray:none"
       id="path256" /><path
       d="m 125.17,42.669 c -2.83,-2.834 -0.91,-2.628 0.17,-3.035 0.96,-0.363 1.25,-1.217 -0.17,-2.634"
       style="fill:none;stroke:#000000;stroke-opacity:1;stroke-width:0.72;stroke-linecap:round;stroke-linejoin:round;stroke-miterlimit:10;stroke-dasharray:none"
       id="path258" /><path
       d="m 125.17,37 c -2.83,-2.834 -0.91,-2.629 0.17,-3.035 0.96,-0.363 1.25,-1.217 -0.17,-2.634"
       style="fill:none;stroke:#000000;stroke-opacity:1;stroke-width:0.72;stroke-linecap:round;stroke-linejoin:round;stroke-miterlimit:10;stroke-dasharray:none"
       id="path260" /><path
       d="m 117.16,42.669 c -2.83,-2.834 -0.91,-2.628 0.17,-3.035 0.96,-0.363 1.25,-1.217 -0.17,-2.634"
       style="fill:none;stroke:#000000;stroke-opacity:1;stroke-width:0.72;stroke-linecap:round;stroke-linejoin:round;stroke-miterlimit:10;stroke-dasharray:none"
       id="path262" /><path
       d="m 117.16,37 c -2.83,-2.834 -0.91,-2.629 0.17,-3.035 0.96,-0.363 1.25,-1.217 -0.17,-2.634"
       style="fill:none;stroke:#000000;stroke-opacity:1;stroke-width:0.72;stroke-linecap:round;stroke-linejoin:round;stroke-miterlimit:10;stroke-dasharray:none"
       id="path264" /><text
       transform="matrix(1,0,0,-1,118.71,35.2)"
       id="text266"><tspan
         style="fill:#000000;fill-opacity:1;fill-rule:nonzero;stroke:none;font-family:Times New Roman;font-variant:normal;font-weight:normal;font-size:5.999904;writing-mode:lr;-inkscape-font-specification:Times New"
         x="0 1.499904 2.999808"
         y="0"
         sodipodi:role="line"
         id="tspan268">...</tspan></text>
<path
       d="m 130.39,15.217 20.981,0 0,28.87 -20.981,0 0,-28.87 z"
       style="fill:#ffffff;fill-opacity:1;fill-rule:evenodd;stroke:none"
       id="path270" /><path
       d="m 130.39,15.217 20.981,0 0,28.87 -20.981,0 0,-28.87 z"
       style="fill:none;stroke:#000000;stroke-opacity:1;stroke-width:0.24;stroke-linecap:round;stroke-linejoin:round;stroke-miterlimit:10;stroke-dasharray:none"
       id="path272" /><text
       transform="matrix(1,0,0,-1,132.39,24.217)"
       id="text274"><tspan
         style="fill:#000000;fill-opacity:1;fill-rule:nonzero;stroke:none;font-family:Times New Roman;font-variant:normal;font-weight:normal;font-size:5.999904;writing-mode:lr;-inkscape-font-specification:Times New"
         x="0 3.665016 6.665112 8.663256 11.32632 13.989384 16.98948"
         y="0"
         sodipodi:role="line"
         id="tspan276">Thread </tspan></text>
<text
       transform="matrix(1,0,0,-1,135.38,17.016)"
       id="text278"><tspan
         style="fill:#000000;fill-opacity:1;fill-rule:nonzero;stroke:none;font-family:Times New Roman;font-variant:normal;font-weight:normal;font-size:5.999904;writing-mode:lr;-inkscape-font-specification:Times New"
         x="0 3.33684 6.336936 9.337032"
         y="0"
         sodipodi:role="line"
         id="tspan280">Pool</tspan></text>
<path
       d="m 133.23,42.669 c -2.84,-2.834 -0.91,-2.628 0.16,-3.035 0.97,-0.363 1.26,-1.217 -0.16,-2.634"
       style="fill:none;stroke:#000000;stroke-opacity:1;stroke-width:0.72;stroke-linecap:round;stroke-linejoin:round;stroke-miterlimit:10;stroke-dasharray:none"
       id="path282" /><path
       d="m 133.23,37 c -2.84,-2.834 -0.91,-2.629 0.16,-3.035 0.97,-0.363 1.26,-1.217 -0.16,-2.634"
       style="fill:none;stroke:#000000;stroke-opacity:1;stroke-width:0.72;stroke-linecap:round;stroke-linejoin:round;stroke-miterlimit:10;stroke-dasharray:none"
       id="path284" /><path
       d="m 136.74,42.669 c -2.84,-2.834 -0.92,-2.628 0.16,-3.035 0.97,-0.363 1.25,-1.217 -0.16,-2.634"
       style="fill:none;stroke:#000000;stroke-opacity:1;stroke-width:0.72;stroke-linecap:round;stroke-linejoin:round;stroke-miterlimit:10;stroke-dasharray:none"
       id="path286" /><path
       d="m 136.74,37 c -2.84,-2.834 -0.92,-2.629 0.16,-3.035 0.97,-0.363 1.25,-1.217 -0.16,-2.634"
       style="fill:none;stroke:#000000;stroke-opacity:1;stroke-width:0.72;stroke-linecap:round;stroke-linejoin:round;stroke-miterlimit:10;stroke-dasharray:none"
       id="path288" /><path
       d="m 148.4,42.669 c -2.83,-2.834 -0.91,-2.628 0.17,-3.035 0.96,-0.363 1.25,-1.217 -0.17,-2.634"
       style="fill:none;stroke:#000000;stroke-opacity:1;stroke-width:0.72;stroke-linecap:round;stroke-linejoin:round;stroke-miterlimit:10;stroke-dasharray:none"
       id="path290" /><path
       d="m 148.4,37 c -2.83,-2.834 -0.91,-2.629 0.17,-3.035 0.96,-0.363 1.25,-1.217 -0.17,-2.634"
       style="fill:none;stroke:#000000;stroke-opacity:1;stroke-width:0.72;stroke-linecap:round;stroke-linejoin:round;stroke-miterlimit:10;stroke-dasharray:none"
       id="path292" /><path
       d="m 140.39,42.669 c -2.83,-2.834 -0.91,-2.628 0.17,-3.035 0.96,-0.363 1.25,-1.217 -0.17,-2.634"
       style="fill:none;stroke:#000000;stroke-opacity:1;stroke-width:0.72;stroke-linecap:round;stroke-linejoin:round;stroke-miterlimit:10;stroke-dasharray:none"
       id="path294" /><path
       d="m 140.39,37 c -2.83,-2.834 -0.91,-2.629 0.17,-3.035 0.96,-0.363 1.25,-1.217 -0.17,-2.634"
       style="fill:none;stroke:#000000;stroke-opacity:1;stroke-width:0.72;stroke-linecap:round;stroke-linejoin:round;stroke-miterlimit:10;stroke-dasharray:none"
       id="path296" /><text
       transform="matrix(1,0,0,-1,141.93,35.2)"
       id="text298"><tspan
         style="fill:#000000;fill-opacity:1;fill-rule:nonzero;stroke:none;font-family:Times New Roman;font-variant:normal;font-weight:normal;font-size:5.999904;writing-mode:lr;-inkscape-font-specification:Times New"
         x="0 1.499904 2.999808"
         y="0"
         sodipodi:role="line"
         id="tspan300">...</tspan></text>
</g></svg>
